<svg xmlns="http://www.w3.org/2000/svg" width="175" height="144" fill="none"><g clip-path="url(#a)"><path fill="#F1CD99" d="M144.6 0v49.6a63.8 63.8 0 0 1-57.1 0l-1-.5a17.7 17.7 0 0 0-9-2.1H62.8c-7.4 0-13.6-3.9-16-9.2L29.2 52.2a19.8 19.8 0 0 1-24.2 0 12.4 12.4 0 0 1 0-19.9L39.3 4.1c3.2-2.6 7.6-4.1 12-4.1h93.3Z"/><path fill="#F0C78D" d="M144.6 0v49.6a63.8 63.8 0 0 1-57.1 0V0h57Z"/><path fill="#91867E" d="M169.3 92.3h-9.6c-17 0-34.2 4.8-51.2 14.1a44.9 44.9 0 0 1-21 4.7c-7.6 0-15.3-1.5-21-4.7-17-9.3-34.3-14-51.2-14H5.7c-3.2 0-5.7 2-5.7 4.6v42.3c0 2.6 2.5 4.7 5.7 4.7h163.6c3.2 0 5.7-2.1 5.7-4.7V97c0-2.6-2.5-4.7-5.7-4.7Z"/><path fill="#7CCC92" d="M87.5 75.1c3.2 0 5.7-2 5.7-4.7 0-2.6-2.5-4.7-5.7-4.7s-5.7 2.1-5.7 4.7 2.5 4.7 5.7 4.7Z"/><path fill="#34B772" d="M110.3 75.1c3.2 0 5.7-2 5.7-4.7 0-2.6-2.5-4.7-5.7-4.7-3.1 0-5.7 2.1-5.7 4.7s2.6 4.7 5.7 4.7ZM99 94c3 0 5.6-2.2 5.6-4.8 0-2.6-2.5-4.7-5.7-4.7-3.1 0-5.7 2.1-5.7 4.7S95.8 94 99 94Z"/><path fill="#7CCC92" d="M64.7 75.1c3.1 0 5.7-2 5.7-4.7 0-2.6-2.6-4.7-5.7-4.7-3.2 0-5.7 2.1-5.7 4.7s2.5 4.7 5.7 4.7ZM76 94c3.2 0 5.8-2.2 5.8-4.8 0-2.6-2.6-4.7-5.7-4.7-3.2 0-5.7 2.1-5.7 4.7S72.9 94 76 94Z"/><path fill="#FF0C38" d="M175 4.7V61c0 2.6-2.6 4.7-5.7 4.7h-22.8c-3.2 0-5.7-2-5.7-4.7V4.7c0-2.6 2.5-4.7 5.7-4.7h22.8c3.1 0 5.7 2.1 5.7 4.7Z"/><path fill="#847976" d="M175 97v42.3c0 2.6-2.5 4.7-5.7 4.7H87.5v-32.9c7.6 0 15.3-1.5 21-4.7 17-9.3 34.3-14 51.2-14h9.6c3.2 0 5.7 2 5.7 4.6Z"/><path fill="#F5DDB3" d="M51.4 9.4c-1.5 0-3 .5-4 1.4L13 38.9c-2.3 1.9-2.3 4.8 0 6.7a6.6 6.6 0 0 0 8 0l31-25.4c1-1 2.5-1.4 4-1.4h52.3c3.2 0 5.7 2 5.7 4.7 0 2.6-2.5 4.7-5.7 4.7H62.8c-3.2 0-5.7 2-5.7 4.7 0 2.6 2.5 4.7 5.7 4.7h14.7c3.6 0 7 .4 10 1.4 2 .6 4 1.4 5.7 2.5a49.5 49.5 0 0 0 47.6-1.3V9.4H51.4Z"/><path fill="#F3D3A6" d="M140.8 9.4v30.8a49.5 49.5 0 0 1-47.6 1.3 25 25 0 0 0-5.7-2.5V28.2h21c3 0 5.6-2.1 5.6-4.7s-2.5-4.7-5.7-4.7H87.5V9.4h53.3Z"/></g><defs><clipPath id="a"><path fill="#fff" d="M0 0h175v144H0z"/></clipPath></defs></svg>