<svg xmlns="http://www.w3.org/2000/svg" width="694" height="805" fill="none"><path fill="#1CA538" d="M547 246v-2c10-66-18-135-111-119-6 1-10-49-56-60-19-4-57-5-78-1-28 6-54 32-68 71h-14c-52-4-84 50-76 106l1 16c-21 17-40 54-40 90 0 54 36 92 74 92h1c-5 55 38 75 72 75h67c10 0 19-2 27-6 10 5 20 9 31 9h67c35 0 64-33 73-78 0 0 72 47 90-90 9-58-26-97-60-103Z"/><path fill="#65320B" d="M484 383c-3 40-22 41-31 40l7-14c15-33 0-70 5-72 20-11 8-47 8-47l-5 1c7 19 1 32-9 39-25 14-36-16-36-16l-2 6c9 25 36 25 36 25v25c-19 30-27 0-27 0l-1 8c16 31 27 4 27 4-1 23-12 37-24 45-24 17-49 13-49 13 14-11 18-23 16-40-2-18-9-16-22-27-8-6-13-15-15-33-2-17 19-29 19-29l-2-5c-38 16-19 58-19 58-13 1-14 1-22-21-7-22-25-9-25-9l1 5c14-11 20 12 20 12 3 28 25 27 25 27 39 9 13 76-19 66-49-15-41-28-41-28 29-19 7-49 7-49l-4 4c15 8 0 44-17 34-17-12-2-33-2-33l-5 1c-16 30 12 43 12 43 1 11 5 19 10 25-26-2-80-14-63-80 0 0 48 4 51-48l-7-3s-4 43-45 41c0 0-32-9-14-49l-6-2s-22 37 11 60c0 0-9 29 1 55-13 8-22-12-22-12l-1 12c11 15 22 11 26 8 11 20 34 36 83 35v313h83l-10-313c25-4 45-6 61-29 38 11 41-46 41-46h-5Z"/><g clip-path="url(#a)"><path fill="#59C230" d="M343 118c-4 0-18-4-14-25h1c5 0 24 4 14 25h-1Z"/><path fill="#4EB229" d="M330 93h-1c7 2 19 7 11 25h4c10-21-9-25-14-25Z"/><path fill="#F54432" d="M347 115s-23-11-37 7c-6 8-8 18-7 28 2 12 7 32 20 45 0 0 6 9 24 0 18 9 24 0 24 0 13-13 17-33 19-45 2-10-1-20-7-28-14-18-36-7-36-7Z"/><path fill="#E83826" d="m343 115 2-1c-3-1-9-3-16-2 8 0 14 3 14 3ZM343 195c-5 2-9 4-13 4 4 0 8 0 15-3l-2-1ZM383 122c-7-9-16-11-23-10 6 0 13 3 19 10 6 8 8 18 7 28-2 12-6 32-19 45 0 0-3 3-8 4 8 1 12-4 12-4 13-13 17-33 19-45 2-10-1-20-7-28Z"/><path fill="#000" d="M345 115c-1 0-2-1-1-2 2-5 2-10 0-13-3-5-11-7-13-7-2 7-1 12 2 16v3h-3c-3-5-4-12-2-21l2-2c4 1 13 3 16 10 3 4 3 9 1 15l-2 1Z"/><path fill="#000" d="M361 201c-4 0-8-1-14-4-6 3-11 4-15 4-7 0-10-4-11-5-6-6-11-14-14-24-3-7-5-14-6-23-2-10 1-21 7-29 7-8 15-12 26-11 6 0 11 2 13 3 1-1 6-3 13-3 10-1 19 3 25 11s9 19 7 29l-5 23c-4 10-9 18-15 24-1 1-4 5-11 5Zm-14-8c9 5 15 5 18 4a9 9 0 0 0 5-3c13-13 18-34 19-45 2-10-1-19-6-27-6-7-14-10-23-10-7 1-13 3-13 4h-1c0-1-6-3-13-4-9 0-17 3-22 10-6 8-8 17-7 27a82 82 0 0 0 20 45l4 3c3 1 9 1 18-4h1Z"/><path fill="#000" d="m347 116-2-2 2-13c2-9 7-14 13-16l2 1-2 2c-12 3-12 26-12 26l-1 2Z"/></g><g clip-path="url(#b)"><path fill="#59C230" d="M219 188c-3 0-18-4-13-24l1-1c4 0 23 4 13 25h-1Z"/><path fill="#4EB229" d="M207 163h-1c7 2 18 7 10 25h4c10-21-9-25-13-25Z"/><path fill="#F54432" d="M223 185s-22-11-36 8c-6 7-9 17-7 27 1 12 6 32 19 45 0 0 6 9 24 0 18 9 24 0 24 0 13-13 18-33 20-45 1-10-1-20-7-27-15-19-37-8-37-8Z"/><path fill="#E83826" d="M219 185h2c-3-2-9-3-15-3l13 3ZM219 265c-5 3-9 4-12 4 3 1 8 0 14-3l-2-1ZM260 193c-7-9-16-11-24-11 7 1 14 3 20 11 6 7 8 17 7 27-2 12-7 32-20 45 0 0-2 3-8 4 9 1 12-4 12-4 13-13 18-33 20-45 1-10-1-20-7-27Z"/><path fill="#000" d="M222 185h-1l-1-2c2-5 2-9 0-13-3-5-10-7-13-7-1 7-1 13 2 17v2h-2c-4-5-5-12-3-20 0-2 2-3 3-2 4 0 12 2 16 9 2 4 2 9 0 15l-1 1Z"/><path fill="#000" d="M238 271c-4 0-9-1-15-4-6 3-11 4-14 4-7 0-11-4-11-5-6-6-11-14-15-23l-6-24c-1-10 2-21 8-29s15-12 25-11l13 3 13-3c11-1 19 3 26 11 6 8 8 19 7 29-1 9-3 17-6 24-3 9-8 17-14 23-1 1-4 5-11 5Zm-15-8 1 1c9 4 14 4 18 3a9 9 0 0 0 4-3c14-13 18-34 20-45 1-10-1-19-7-26-6-8-13-11-23-10-7 0-12 3-12 3h-1c-1 0-6-3-13-3-10-1-17 2-23 10-5 7-8 16-6 26a82 82 0 0 0 19 45s1 2 5 3c3 1 9 1 18-3v-1Z"/><path fill="#000" d="m223 186-1-2 1-13c3-9 7-14 13-16l2 2-1 2c-12 3-12 25-12 25l-2 2Z"/></g><g clip-path="url(#c)"><path fill="#59C230" d="M466 193c-3-1-18-5-13-25l1-1c4 1 23 4 13 25l-1 1Z"/><path fill="#4EB229" d="m454 167-1 1c7 1 18 7 10 24l3 1 1-1c10-21-9-24-13-25Z"/><path fill="#F54432" d="M470 190s-22-11-36 7c-6 7-9 17-7 27 1 12 6 33 19 45 0 0 6 10 24 0 18 10 24 0 24 0 13-12 18-33 20-45 1-10-1-20-7-27-15-18-37-7-37-7Z"/><path fill="#E83826" d="m466 190 2-1c-3-1-9-3-15-3 7 1 13 4 13 4ZM466 269c-5 3-9 4-12 4 3 1 8 0 14-3l-2-1ZM507 197c-7-9-16-11-24-11 7 1 14 3 20 11 6 7 8 17 7 27-2 12-7 33-20 45 0 0-2 4-8 4 9 1 12-4 12-4 13-12 18-33 20-45 1-10-1-20-7-27Z"/><path fill="#000" d="M469 189h-1l-1-2c2-5 2-9 0-12-3-6-10-7-13-8-2 7-1 13 2 17v2h-2c-4-5-5-12-3-20l3-2c3 0 12 2 16 9 2 4 2 9 0 15l-1 1Z"/><path fill="#000" d="M485 275c-4 0-9-1-15-4-6 3-11 4-14 4-8 0-11-4-11-4-6-6-11-14-15-24l-6-23c-1-11 2-21 8-29s15-12 25-12l13 4 13-4c10 0 19 4 25 12 7 8 9 18 8 29-1 8-3 16-6 23-4 10-8 18-14 24-1 0-4 4-11 4Zm-15-7h1c9 4 14 4 17 3a9 9 0 0 0 5-3c14-13 18-34 20-45 1-9-1-19-7-26s-13-11-23-10c-7 0-12 3-12 3h-2s-5-3-12-3c-10-1-17 3-23 10-5 7-8 17-7 26a82 82 0 0 0 20 45s1 2 5 3c3 1 9 1 17-3h1Z"/><path fill="#000" d="m470 190-1-2 1-12c3-9 7-15 13-16 1-1 2 0 2 1l-1 2c-12 3-12 25-12 25l-2 2Z"/></g><g clip-path="url(#d)"><path fill="#59C230" d="M349 269c-3-1-18-5-13-25l1-1c4 1 23 4 13 25l-1 1Z"/><path fill="#4EB229" d="m337 243-1 1c6 1 18 7 10 24l3 1 1-1c10-21-9-24-13-25Z"/><path fill="#F54432" d="M353 266s-22-12-37 7c-5 7-8 17-6 27 1 12 6 32 19 45 0 0 6 9 24 0 18 9 24 0 24 0 13-13 18-33 20-45 1-10-1-20-7-27-15-19-37-7-37-7Z"/><path fill="#E83826" d="m349 266 2-1c-3-1-9-3-15-3 7 1 13 4 13 4ZM349 345c-5 3-9 4-12 4 3 1 8 0 14-3l-2-1ZM390 273c-7-9-16-11-24-11 7 1 14 3 20 11 5 7 8 17 6 27-1 12-6 32-19 45 0 0-2 4-8 4 9 1 12-4 12-4 13-13 18-33 20-45 1-10-1-20-7-27Z"/><path fill="#000" d="M352 265h-1l-1-2c2-5 2-9 0-12-3-6-10-7-13-8-2 7-1 13 2 17v2h-2c-4-5-5-12-3-20 0-2 2-2 3-2 3 0 12 2 16 9 2 4 2 9 0 15l-1 1Z"/><path fill="#000" d="M367 351c-3 0-8-1-14-4-6 3-11 4-14 4-8 0-11-4-11-5-6-6-11-13-15-23-3-7-4-15-6-23-1-11 2-22 8-30s15-11 25-11l13 4 13-4c10 0 19 3 25 11 7 8 9 19 8 30-1 8-3 16-6 23-4 10-8 17-14 23-1 1-4 5-12 5Zm-14-7h1c9 4 14 4 17 3a9 9 0 0 0 5-3c13-13 18-34 20-45 1-10-1-19-7-26-6-8-13-11-23-10-7 0-12 3-12 3h-2s-5-3-12-3c-10-1-17 2-23 10-6 7-8 16-7 26a82 82 0 0 0 20 45s1 2 5 3c3 1 9 1 17-3h1Z"/><path fill="#000" d="m353 266-2-2 2-12c2-9 7-15 13-16 1-1 2 0 2 1l-1 2c-12 3-12 25-12 25l-2 2Z"/></g><g clip-path="url(#e)"><path fill="#59C230" d="M473 340c-3-1-18-5-13-25l1-1c4 0 23 4 13 25l-1 1Z"/><path fill="#4EB229" d="M461 314h-1c7 2 18 7 10 25l3 1 1-1c10-21-9-25-13-25Z"/><path fill="#F54432" d="M477 337s-22-12-36 7c-6 7-9 17-7 27 1 12 6 32 19 45 0 0 6 9 24 0 18 9 24 0 24 0 13-13 18-33 20-45 1-10-1-20-7-27-14-19-37-7-37-7Z"/><path fill="#E83826" d="m473 337 2-1c-3-1-9-3-15-3 7 1 13 4 13 4ZM473 416c-5 3-9 4-12 4 3 1 8 0 14-3l-2-1ZM514 344c-7-9-16-11-24-11 7 1 14 3 20 11 6 7 8 17 7 27-2 12-7 32-20 45 0 0-2 4-8 4 9 1 12-4 12-4 13-13 18-33 20-45 1-10-1-20-7-27Z"/><path fill="#000" d="M476 336h-1l-1-2c2-5 2-9 0-12-3-6-10-8-13-8-1 7-1 13 2 17v2h-2c-4-5-5-12-3-20 0-2 2-3 3-2 4 0 12 2 16 9 2 4 2 9 0 15l-1 1Z"/><path fill="#000" d="M492 422c-4 0-9-1-15-4-6 3-11 4-14 4-7 0-11-4-11-5-6-6-11-14-15-23l-5-24c-2-10 1-21 7-29s15-11 25-11l13 3 13-3c11 0 19 3 26 11 6 8 8 19 7 29-1 9-3 17-6 24-3 9-8 17-14 23-1 1-4 5-11 5Zm-15-7h1c9 4 14 4 18 3a9 9 0 0 0 5-3c13-13 17-34 19-45 1-10-1-19-7-26-5-8-13-11-23-10-7 0-12 3-12 3h-1s-6-3-13-3c-9-1-17 2-23 10-5 7-8 16-6 26a82 82 0 0 0 19 45s1 2 5 3c3 1 9 1 18-3Z"/><path fill="#000" d="m477 337-1-2 1-13c3-9 7-14 13-16l2 2-1 2c-12 3-12 25-12 25l-2 2Z"/></g><g clip-path="url(#f)"><path fill="#59C230" d="M226 351c-3-1-18-5-13-25l1-1c4 1 23 4 13 25l-1 1Z"/><path fill="#4EB229" d="m214 325-1 1c7 1 19 7 10 24l3 1 1-1c10-21-9-24-13-25Z"/><path fill="#F54432" d="M230 348s-22-11-36 7c-6 8-9 18-7 27 1 13 6 33 19 46 0 0 6 9 24 0 18 9 24 0 24 0 13-13 18-33 20-46 1-9-1-19-7-27-14-18-37-7-37-7Z"/><path fill="#E83826" d="m226 348 2-1c-3-1-8-3-15-2 8 0 13 3 13 3ZM226 428l-12 4 14-3-2-1ZM267 355c-7-9-16-11-24-10 7 0 14 3 20 10 6 8 8 18 7 27-2 13-7 33-20 46 0 0-2 3-8 4 9 0 12-4 12-4 13-13 18-33 20-46 1-9-1-19-7-27Z"/><path fill="#000" d="M229 348h-1l-1-3c2-5 2-9 0-12-3-6-10-7-13-8-1 7-1 13 2 17v2h-2c-4-5-5-11-3-20l3-2c4 0 12 2 16 9 2 4 2 10 0 16l-1 1Z"/><path fill="#000" d="M245 433c-4 0-9-1-15-4-6 3-10 4-14 4-7 0-11-3-11-4-6-6-11-14-15-24l-5-23c-2-11 1-21 7-29s15-12 25-11c7 0 12 2 13 3 2-1 7-3 13-3 11-1 19 3 26 11 6 8 8 18 7 29-1 8-3 16-6 23-3 10-8 18-14 24-1 1-4 4-11 4Zm-15-7h1c9 4 14 4 18 3a9 9 0 0 0 5-3c13-13 17-33 19-45 1-9-1-19-7-26-5-7-13-11-22-10-8 0-13 3-13 3h-1s-6-3-13-3c-9-1-17 3-23 10-5 7-8 17-6 26a82 82 0 0 0 19 46s2 2 5 2c3 1 9 1 18-3Z"/><path fill="#000" d="m230 348-1-1 1-13c3-9 7-15 13-16l2 1-1 2c-12 3-12 25-12 26l-2 1Z"/></g><defs><clipPath id="a"><path fill="#fff" d="M294 85h106v116H294z"/></clipPath><clipPath id="b"><path fill="#fff" d="M170 155h106v116H170z"/></clipPath><clipPath id="c"><path fill="#fff" d="M417 160h106v116H417z"/></clipPath><clipPath id="d"><path fill="#fff" d="M300 235h106v116H300z"/></clipPath><clipPath id="e"><path fill="#fff" d="M424 306h106v116H424z"/></clipPath><clipPath id="f"><path fill="#fff" d="M177 318h106v116H177z"/></clipPath></defs></svg>