<svg xmlns="http://www.w3.org/2000/svg" width="168" height="170" fill="none"><path fill="#6DC82A" d="M92.8 70.2c-1.2 1.3-3 2-4.9 2-.6-.1-15.8-1.2-31.3-9.6a62.6 62.6 0 0 1-33.3-56c0-1.8.6-3.5 1.8-4.7C27 0 29.1 0 30.1 0c.6 0 16 .1 32 9.8 8.2 5 15 11.6 20.4 19.8a82 82 0 0 1 12 35.5c.2 1.9-.4 3.7-1.7 5Z"/><path fill="#5EAC24" d="M82.7 29.9a73.2 73.2 0 0 0-6.4 16.5c-1.4 4.3-3.6 11.8-5.4 22.2 9.4 3 16.6 3.5 17 3.5a6.3 6.3 0 0 0 6.6-7A82.2 82.2 0 0 0 82.7 30Z"/><path fill="#4E901E" d="M87.5 59.4 74.1 46.2l-3.5-17.8a2.6 2.6 0 1 0-5 1l2 10.3-7.4-7.2-3.6-18a2.6 2.6 0 1 0-5 1l2 10.5L36.6 9c-1-1-2.7-1-3.7 0-1 1.1-1 2.7 0 3.7l19 18.7-13.2-.2a2.6 2.6 0 0 0-2.6 2.6c0 1.4 1 2.6 2.5 2.6l18.7.3 8.8 8.7-13.4-.2a2.6 2.6 0 0 0-2.7 2.5c0 1.5 1.1 2.7 2.6 2.7l18.8.3L84 63.1a2.5 2.5 0 0 0 3.6 0c1-1 1-2.7 0-3.7Z"/><path fill="#91DC5A" d="M153.5 2c-1.3-1.4-3-2.1-4.9-2-.6 0-15.8 1.1-31.3 9.6a61.3 61.3 0 0 0-31.2 39.7 192 192 0 0 0-7.8 67.7 5.7 5.7 0 0 0 5.9 5.5 5.7 5.7 0 0 0 5.4-6c-.8-18.3.7-33.3 2.6-44.4 4.4-.3 17.3-1.7 30.5-9.7 8.3-5 15.1-11.7 20.4-19.8a82 82 0 0 0 12-35.6c.3-1.8-.3-3.7-1.6-5Z"/><path fill="#5EAC24" d="M145.4 9c-1-1-2.6-1-3.6 0l-17.3 17 2.1-10.6c.3-1.4-.6-2.7-2-3-1.4-.3-2.7.6-3 2l-3.6 18-7.4 7.3 2-10.3c.4-1.4-.5-2.8-2-3-1.3-.3-2.7.6-3 2l-3.5 17.8-13.4 13.2c-1 1-1 2.6 0 3.7a2.6 2.6 0 0 0 3.6 0L107 50.7l18.9-.3c1.4 0 2.5-1.2 2.5-2.7 0-1.4-1.2-2.5-2.6-2.5l-13.4.2 8.7-8.7 18.7-.3c1.4 0 2.6-1.2 2.5-2.6 0-1.5-1.1-2.6-2.5-2.6l-13.3.2 19-18.7c1-1 1-2.6 0-3.6Z"/><path fill="#CC7400" d="M147.4 136.2c-2.6 0-5 .7-7 2a24.4 24.4 0 0 0-27-17.1A32.2 32.2 0 0 0 84 101.5c-13.2 0-24.5 8-29.5 19.6a24.2 24.2 0 0 0-26.8 17c-2-1.2-4.5-2-7-2C13 136.2 7 142.4 7 150a13.4 13.4 0 0 0 23.6 9.1 24.2 24.2 0 0 0 37.7 3.5 31.7 31.7 0 0 0 31.2 0 24.1 24.1 0 0 0 37.7-3.5c2.5 2.8 6 4.6 10 4.6 7.6 0 13.6-6.2 13.6-13.7 0-7.6-6-13.7-13.5-13.7Z"/><path fill="#AA6100" d="M101.7 114.9c3.2 0 6.3.4 9.2 1.3a32 32 0 0 0-56.4 4.9 24.2 24.2 0 0 0-26.8 17c-2-1.2-4.5-2-7-2C13 136.2 7 142.4 7 150a13.4 13.4 0 0 0 23.6 9.1 24.2 24.2 0 0 0 37.7 3.5c2 1.2 4.1 2 6.4 2.8a32.7 32.7 0 0 1 26.9-50.4Z"/><path fill="#AA6100" d="M96.8 145.7c3.2 0 5.8-2.7 5.8-6 0-3.2-2.6-5.8-5.8-5.8a5.9 5.9 0 0 0-5.8 5.9c0 3.2 2.6 5.9 5.8 5.9ZM120.3 159.6c3.2 0 5.8-2.7 5.8-6 0-3.2-2.6-5.8-5.8-5.8a5.9 5.9 0 0 0-5.8 5.9c0 3.2 2.6 5.9 5.8 5.9ZM116.7 135.8c1.3 0 2.3-1 2.3-2.3 0-1.3-1-2.3-2.3-2.3-1.2 0-2.2 1-2.2 2.3 0 1.2 1 2.3 2.2 2.3ZM84 158.2c1.2 0 2.2-1 2.2-2.2 0-1.3-1-2.3-2.2-2.3-1.2 0-2.2 1-2.2 2.3 0 1.2 1 2.2 2.2 2.2ZM91 127.3c1.2 0 2.2-1 2.2-2.3 0-1.2-1-2.3-2.2-2.3-1.3 0-2.3 1-2.3 2.3 0 1.3 1 2.3 2.3 2.3ZM139.2 148c1.3 0 2.3-1 2.3-2.3 0-1.3-1-2.3-2.3-2.3-1.2 0-2.2 1-2.2 2.3 0 1.2 1 2.3 2.2 2.3Z"/><path fill="#CC7400" d="M126.1 111.2c3.3 0 5.9-2.6 5.9-5.9a5.9 5.9 0 1 0-11.7 0c0 3.3 2.6 6 5.8 6ZM139.2 120.8c1.3 0 2.3-1 2.3-2.3 0-1.2-1-2.3-2.3-2.3-1.2 0-2.2 1-2.2 2.3 0 1.3 1 2.3 2.2 2.3ZM139.2 109.9c1.3 0 2.3-1 2.3-2.3 0-1.3-1-2.3-2.3-2.3-1.2 0-2.2 1-2.2 2.3 0 1.3 1 2.3 2.2 2.3Z"/><path fill="#AA6100" d="M37 109.1c3.1 0 5.8-2.6 5.8-5.9 0-3.2-2.7-5.9-5.9-5.9a5.9 5.9 0 0 0-5.8 6c0 3.2 2.6 5.8 5.8 5.8ZM27.2 118.5c1.3 0 2.3-1 2.3-2.3 0-1.2-1-2.2-2.3-2.2-1.2 0-2.2 1-2.2 2.2 0 1.3 1 2.3 2.2 2.3Z"/></svg>