<svg xmlns="http://www.w3.org/2000/svg" width="346" height="341" fill="none"><path fill="#1CA538" d="M147 156s-14 6-14 20 14 20 14 20 13-6 13-20-13-20-13-20Zm4-82s-14 6-14 20c0 13 14 20 14 20s13-7 13-20c0-14-13-20-13-20Zm-32 48s13-6 13-20c0-13-13-20-13-20s-14 7-14 20c0 14 14 20 14 20Zm12-41s13-7 13-20c0-14-13-21-13-21s-13 7-13 21c0 13 13 20 13 20Zm30-55s-13 7-13 20c0 14 13 20 13 20s13-6 13-20-13-20-13-20Zm69 55s13-6 13-20-13-20-13-20-14 6-14 20 14 20 14 20Zm-27 20c0 14 13 20 13 20s14-6 14-20c0-13-14-20-14-20s-13 7-13 20Zm-99 62s-7-13-21-13-20 13-20 13 6 13 20 13 21-13 21-13Zm173-32c-13 0-20 13-20 13s7 14 20 14c14 0 21-14 21-14s-7-13-21-13Zm-58 31s6 13 20 13 20-13 20-13-6-13-20-13-20 13-20 13Zm-65-40s-15-5-24 4c-10 10-5 24-5 24s14 5 24-5c9-10 5-23 5-23Zm111-46s-14-5-23 5c-10 10-5 24-5 24s14 4 23-5c10-10 5-24 5-24Zm-8 37s-14-5-24 5c-9 10-4 23-4 23s14 5 23-4c10-10 5-24 5-24Zm-151 69s-14-5-24 5c-9 10-5 24-5 24s15 5 24-5c10-10 5-24 5-24ZM276 60c10-10 5-24 5-24s-14-5-24 5-5 24-5 24 14 5 24-5Zm-11 62s14 5 24-5c10-9 5-23 5-23s-14-5-24 5-5 23-5 23Zm-66 51s-5 14 5 24 23 5 23 5 5-14-4-24c-10-10-24-5-24-5ZM84 117s-5 14 5 24c10 9 24 5 24 5s5-14-5-24-24-5-24-5Zm-7 26s5-13-5-23-24-5-24-5-4 14 5 24c10 9 24 4 24 4Zm22-34s5-14-5-24c-9-10-23-5-23-5s-5 14 5 24c9 10 23 5 23 5Zm138 73s-5 14 5 24 23 5 23 5 5-14-5-24c-9-9-23-5-23-5ZM193 76c-10-10-24-5-24-5s-5 14 5 24 24 5 24 5 5-14-5-24Zm16-5s5-14-5-24-24-5-24-5-5 14 5 24c10 9 24 5 24 5Zm-97 135s-14 7-14 20c0 14 14 20 14 20s13-6 13-20c0-13-13-20-13-20Z"/><path fill="#65320B" d="M217 128c-6-1-9 13-13 19-4 5-10 5-18 5l-1-34c-1-7-3-10-8-10-6 0-8 3-8 10l-3 93c-13-1-28-6-36-17-9-10-13-43-18-41-5 1-4 38 9 53 10 13 25 22 44 23l-2 94h28l-4-157c12 0 19-3 24-8 6-7 11-28 6-30Z"/></svg>