<svg xmlns="http://www.w3.org/2000/svg" width="639" height="742" fill="none"><path fill="#1CA538" d="M504 227v-2c9-61-17-125-102-110-6 2-9-45-52-55-18-4-53-5-72-1-26 5-49 30-63 65h-13c-47-3-77 46-70 98l1 15c-19 15-37 49-37 83 0 49 34 85 69 85-4 51 36 69 67 69h62c9 0 17-2 25-6 8 5 18 8 28 8h62c32 0 59-30 67-71 0 0 67 43 83-83 8-54-24-89-55-95Z"/><path fill="#65320B" d="M446 353c-3 36-21 38-29 37l7-13c13-30 0-64 4-66 18-11 8-44 8-44l-5 1c6 18 1 30-8 36-23 13-34-15-34-15l-2 6c9 23 34 23 34 23v23c-17 28-25 0-25 0l-1 8c15 28 25 3 25 3-1 21-11 34-23 42-21 16-44 12-44 12 12-10 16-22 15-37-2-16-9-15-21-25-7-6-12-14-13-30-2-16 17-27 17-27l-2-5c-35 15-17 54-17 54-12 0-14 0-20-20-7-20-24-8-24-8l1 4c13-10 18 12 18 12 4 26 24 24 24 24 36 9 11 71-18 62-45-14-38-27-38-27 27-17 7-45 7-45l-4 4c14 7 0 41-15 31-17-10-3-30-3-30l-4 1c-15 28 11 39 11 39 1 11 5 18 9 23-23-1-74-12-58-73 0 0 44 3 47-44l-7-3s-3 40-41 37c0 0-29-7-13-45l-5-1s-20 34 10 55c0 0-8 27 1 51-12 6-21-12-21-12l-1 11c11 15 21 11 25 8 10 18 31 33 76 32v289h77l-10-289c23-4 42-6 57-26 35 9 38-43 38-43h-5Z"/></svg>