<svg xmlns="http://www.w3.org/2000/svg" width="622" height="722" fill="none"><path fill="#1CA538" d="M490 221v-2c9-60-16-121-99-107-6 1-9-44-50-54-18-3-52-4-71 0-25 5-48 28-60 63h-13c-46-3-75 45-68 95l1 15c-19 14-36 48-36 80 0 48 32 83 66 83h1c-4 49 34 67 65 67h60c9 0 17-2 24-6 9 5 18 9 28 9h60c31 0 57-30 65-70 0 0 65 42 81-81 8-52-23-87-54-92Z"/><path fill="#65320B" d="M434 344c-2 35-20 37-28 36l7-14c12-28 0-62 3-63 18-11 8-43 8-43l-4 1c5 17 1 29-8 35-23 13-33-15-33-15l-2 6c8 23 32 23 32 23l1 22c-17 27-25 0-25 0v7c14 28 23 3 23 3 0 21-10 34-21 41-21 16-43 12-43 12 11-10 16-21 14-36-2-16-8-14-20-24-8-6-12-14-13-30-2-15 17-26 17-26l-3-5c-33 15-16 53-16 53-12 0-13 0-20-19-6-20-22-8-22-8l1 4c12-10 17 11 17 11 3 25 23 24 23 24 35 8 11 68-17 60-45-14-37-26-37-26 26-17 7-44 7-44l-5 4c14 7 0 39-14 30-16-10-3-29-3-29l-4 1c-14 27 11 38 11 38 1 10 5 17 9 22-23-1-72-12-57-71 0 0 43 3 46-43l-6-3s-4 39-41 37c0 0-28-8-12-45l-5-1s-20 34 10 54c0 0-8 26 1 49-12 7-21-11-21-11l-1 11c11 14 20 10 24 8 10 17 31 32 75 31l-1 280h75l-10-280c23-4 41-6 56-26 34 9 37-41 37-41h-5Z"/><path fill="#FF8882" d="M403 189c0-2 0-3-2-4-1 0-3 0-4 2l2 3c2 1 3 0 4-1Zm4 11c-2-1-3-1-4 1v4l4-1v-4Zm6-19c2 0 3-1 3-2 0-2-1-3-3-3s-3 1-3 3c0 1 1 2 3 2Zm6 19v4l4 1v-4c-1-2-2-2-4-1Zm-3-9-3-2-3 2v1c0 1 1 3 3 3s3-2 3-3v-1Zm7-2c1 1 2 2 4 1l2-3c-1-2-2-2-4-2l-2 4Zm34-1c1 8-7 12-16 13 7 5 11 13 6 18-3 3-6 5-9 5-2 3-4 5-8 7-7 3-13-3-17-11-4 8-10 14-17 11-3-2-6-4-7-7-4 0-7-2-9-5-6-5-2-13 5-18-9-1-17-5-16-13 0-3 2-6 4-9 0-3 0-6 2-9 4-7 13-6 21-1-2-9-1-17 7-19 4 0 7 0 10 2 3-2 7-2 10-2 8 2 9 10 8 19 7-5 16-6 20 1 2 3 2 6 2 9 2 3 4 6 4 9Z"/><path fill="#FF382E" d="m427 223 1-1-1-2-2 2 2 1ZM421 217l1-1-1-1-2 1 2 1ZM447 190l1-1-1-2-1 2 1 1Z"/><path fill="#fff" d="m425 189-1-2-9 3v-10h-3v10l-10-3-1 2 10 3-6 8 2 2 6-8 6 8 2-2-6-8 10-3Z"/><path fill="#FFC743" d="M413 195c2 0 3-2 3-3 0-2-1-3-3-3s-3 1-3 3c0 1 1 3 3 3Z"/><path fill="#FF382E" d="M413 181c2 0 3-1 3-2 0-2-1-3-3-3s-3 1-3 3c0 1 1 2 3 2ZM400 190c2 0 3-1 3-2 0-2-1-3-3-3-1 0-3 1-3 3l3 2ZM405 205c2 0 3-1 3-3 0-1-1-3-3-3s-3 2-3 3c0 2 1 3 3 3ZM421 205c2 0 3-1 3-3 0-1-1-3-3-3s-3 2-3 3c0 2 1 3 3 3ZM426 190c2 0 3-1 3-2 0-2-1-3-3-3s-3 1-3 3c0 1 1 2 3 2Z"/><path fill="#FF8882" d="m301 107-2-3c-2-1-4 0-4 1-1 2 0 3 2 4 1 0 3 0 4-2Zm3 12h-4c-1 1 0 3 1 4s3 1 4-1c1-1 1-3-1-3Zm7-19c1 0 3-1 3-3l-3-3c-2 0-3 2-3 3 0 2 1 3 3 3Zm6 19c-1 0-2 2-1 3 1 2 3 2 4 1 2-1 2-3 1-4h-4Zm-4-10-2-1-3 1v1c0 2 1 3 3 3 1 0 3-1 3-3l-1-1Zm8-2c0 2 2 2 4 2 1-1 2-2 1-4 0-1-2-2-3-1-2 0-3 2-2 3Zm34 0c1 7-7 11-16 12 7 6 10 13 5 19-2 3-5 4-9 5-1 2-4 5-7 6-7 3-14-2-17-10-4 8-10 13-18 10-3-1-5-4-7-6-3-1-6-2-9-5-5-6-1-13 5-19-9-1-16-5-15-12 0-4 2-7 4-9-1-3 0-7 2-10 4-6 12-5 20-1-2-8 0-16 8-18 3-1 7 0 10 1 3-1 6-2 10-1 7 2 9 10 7 18 8-4 17-5 21 1 1 3 2 7 1 10 3 2 4 5 5 9Z"/><path fill="#FF382E" d="m324 142 2-2-2-1-1 1 1 2ZM318 136l2-1-2-2-1 2 1 1ZM345 109l1-2-1-1-2 1 2 2Z"/><path fill="#fff" d="m323 108-1-3-10 3v-9h-3v9l-9-3-1 3 9 3-6 8 3 2 6-8 6 8 2-2-6-8 10-3Z"/><path fill="#FFC743" d="M311 113c1 0 3-1 3-3l-3-2c-2 0-3 1-3 2 0 2 1 3 3 3Z"/><path fill="#FF382E" d="M311 100c1 0 3-1 3-3l-3-3c-2 0-3 2-3 3 0 2 1 3 3 3ZM298 109c1 0 3-1 3-3l-3-3c-2 0-3 2-3 3 0 2 1 3 3 3ZM303 124l3-3c0-2-2-3-3-3-2 0-3 1-3 3 0 1 1 3 3 3ZM319 124l3-3c0-2-2-3-3-3-2 0-3 1-3 3 0 1 1 3 3 3ZM324 109c1 0 3-1 3-3l-3-3c-2 0-3 2-3 3 0 2 1 3 3 3Z"/><path fill="#FF8882" d="M217 185c1-1 0-3-2-3-1-1-3 0-3 2-1 1 0 3 2 3 1 1 3 0 3-2Zm4 12h-4c-1 2-1 3 1 4h4c1-2 0-3-1-4Zm6-19c2 0 3-1 3-2 0-2-1-3-3-3-1 0-3 1-3 3l3 2Zm7 19c-2 1-2 2-1 4h4c1-1 2-2 1-4h-4Zm-4-9c0-1-1-2-3-2l-2 2-1 1 3 2c2 0 3-1 3-2v-1Zm8-3c0 2 2 3 3 2 2 0 3-2 2-3 0-2-2-3-4-2-1 0-2 2-1 3Zm34 0c0 7-7 11-16 12 6 6 10 14 5 19-3 3-6 4-9 5l-7 7c-8 3-14-3-18-11-3 8-10 14-17 11-3-2-6-4-7-7-3-1-7-2-9-5-5-5-2-13 5-19-9-1-17-5-16-12 1-4 2-7 5-9-1-3 0-6 1-9 4-7 13-6 21-1-2-9 0-17 7-19 4 0 7 0 10 2 3-2 7-2 10-2 8 2 10 10 8 19 8-5 16-6 20 1 2 3 3 6 2 9 2 2 4 5 5 9Z"/><path fill="#FF382E" d="m241 220 1-2-1-1-2 1 2 2ZM235 214l2-1-2-1-1 1 1 1ZM261 187l2-2-2-1-1 1 1 2Z"/><path fill="#fff" d="m239 186-1-2-9 3v-10h-3v10l-10-3-1 2 10 3-6 8 2 2 6-8 6 8 3-2-6-8 9-3Z"/><path fill="#FFC743" d="M227 191c2 0 3-1 3-2 0-2-1-3-3-3-1 0-3 1-3 3l3 2Z"/><path fill="#FF382E" d="M227 178c2 0 3-1 3-2 0-2-1-3-3-3-1 0-3 1-3 3l3 2ZM214 187c2 0 3-1 3-2 0-2-1-3-3-3-1 0-2 1-2 3l2 2ZM219 202c2 0 3-1 3-3 0-1-1-3-3-3l-3 3c0 2 2 3 3 3ZM235 202c2 0 3-1 3-3 0-1-1-3-3-3l-3 3c0 2 2 3 3 3ZM240 187c2 0 3-1 3-2 0-2-1-3-3-3-1 0-3 1-3 3l3 2Z"/><path fill="#FF8882" d="M439 318c1-1 0-3-2-3-1-1-3 0-3 2-1 1 0 3 1 3 2 1 4 0 4-2Zm4 12h-4c-1 2-1 3 1 4h4c1-2 0-3-1-4Zm6-19c2 0 3-1 3-3 0-1-1-2-3-2l-3 2c0 2 2 3 3 3Zm7 19c-2 1-2 2-1 4h4c1-1 2-2 1-4h-4Zm-4-9c0-1-1-2-3-2l-2 2h-1c0 2 2 3 3 3 2 0 3-1 3-3Zm7-3c1 2 3 3 4 2 2 0 3-2 2-3 0-2-2-3-4-2l-2 3Zm34 0c1 7-6 11-15 12 6 6 10 14 5 19-3 3-6 4-9 5l-7 7c-8 3-14-3-18-11-3 8-10 14-17 11-3-2-6-4-7-7-4-1-7-2-9-5-5-5-2-13 5-19-9-1-17-5-16-12 1-4 2-7 5-9-1-3 0-6 1-9 4-7 13-6 21-2-2-8 0-16 7-18 4-1 7 0 10 2 3-2 7-3 10-2 8 2 10 10 8 18 8-4 16-5 20 2 2 3 3 6 2 9 2 2 4 5 4 9Z"/><path fill="#FF382E" d="m463 353 1-2-1-1-2 1 2 2ZM457 347l1-1-1-2-1 2 1 1ZM483 320l2-2-2-1-1 1 1 2Z"/><path fill="#fff" d="m461 319-1-2-9 3v-10h-3v10l-10-3-1 2 10 3-6 8 2 2 6-8 6 8 3-2-6-8 9-3Z"/><path fill="#FFC743" d="M449 324c2 0 3-1 3-3 0-1-1-2-3-2l-3 2c0 2 2 3 3 3Z"/><path fill="#FF382E" d="M449 311c2 0 3-1 3-3 0-1-1-2-3-2l-3 2c0 2 2 3 3 3ZM436 320c2 0 3-1 3-3 0-1-1-2-3-2l-3 2c0 2 2 3 3 3ZM441 335c2 0 3-1 3-3s-1-3-3-3c-1 0-3 1-3 3s2 3 3 3ZM457 335c2 0 3-1 3-3s-1-3-3-3c-1 0-3 1-3 3s2 3 3 3ZM462 320c2 0 3-1 3-3 0-1-1-2-3-2l-3 2c0 2 2 3 3 3Z"/><path fill="#FF8882" d="M306 272c1-2 0-3-2-4l-3 2c-1 2 0 3 2 4l3-2Zm4 11c-1-1-3 0-4 1s-1 3 1 4c1 1 3 0 4-1s0-3-1-4Zm6-18c2 0 3-1 3-3s-1-3-3-3c-1 0-3 1-3 3s2 3 3 3Zm7 18c-2 1-2 3-1 4s3 2 4 1 2-3 1-4-3-2-4-1Zm-4-9c0-1-1-2-3-2l-2 2-1 1c0 2 2 3 3 3 2 0 3-1 3-3v-1Zm8-2 3 2c2-1 3-2 2-4l-4-2c-1 1-2 2-1 4Zm34-1c0 8-7 12-16 13 6 6 10 13 5 19-3 2-6 4-9 4-2 3-4 6-7 7-8 3-14-3-18-11-3 8-10 14-17 11-3-1-6-4-7-7-3 0-7-2-9-4-5-6-2-13 5-19-9-1-17-5-16-13 1-3 2-6 5-8-1-3 0-7 2-10 3-6 12-5 20-1-2-8 0-17 7-18 4-1 7 0 10 1 3-1 7-2 11-1 7 1 9 10 7 18 8-4 16-5 20 1 2 3 3 7 2 10l5 8Z"/><path fill="#FF382E" d="m330 306 1-1-1-1-2 1 2 1ZM324 301l2-2-2-1-1 1 1 2ZM350 273l2-1-2-1-1 1 1 1Z"/><path fill="#fff" d="M328 273v-3l-10 3v-10h-3v10l-10-3-1 3 10 3-6 8 2 1 6-8 6 8 3-1-6-8 9-3Z"/><path fill="#FFC743" d="M316 278c2 0 3-1 3-3 0-1-1-3-3-3l-3 3c0 2 2 3 3 3Z"/><path fill="#FF382E" d="M316 265c2 0 3-1 3-3s-1-3-3-3c-1 0-3 1-3 3s2 3 3 3ZM303 274c2 0 3-1 3-3s-1-3-3-3c-1 0-2 1-2 3s1 3 2 3ZM308 288c2 0 3-1 3-2 0-2-1-3-3-3-1 0-2 1-2 3l2 2ZM324 288c2 0 3-1 3-2 0-2-1-3-3-3-1 0-3 1-3 3l3 2ZM329 274c2 0 3-1 3-3s-1-3-3-3c-1 0-3 1-3 3s2 3 3 3Z"/><path fill="#FF8882" d="M176 311c0-2 0-3-2-4l-4 2 2 3c2 1 3 0 4-1Zm4 11c-2-1-3-1-4 1v4c2 1 3 0 4-1v-4Zm6-18c2 0 3-2 3-3 0-2-1-3-3-3s-3 1-3 3c0 1 1 3 3 3Zm6 18v4c1 1 2 2 4 1v-4c-1-2-2-2-4-1Zm-3-9-3-2-3 2v1c0 1 1 3 3 3s3-2 3-3v-1Zm7-2c1 1 2 2 4 1l2-3-4-2-2 4Zm34-1c1 8-7 12-16 13 7 5 11 13 6 19-3 2-6 4-10 4-1 3-3 6-7 7-7 3-13-3-17-11-4 8-10 14-17 11-3-1-6-4-7-7-4 0-7-2-9-4-6-6-2-14 5-19-9-1-17-5-16-13 0-3 2-6 4-8 0-4 0-7 2-10 4-7 13-5 21-1-2-9-1-17 7-18 4-1 7-1 10 1 3-2 7-2 10-1 8 1 9 9 7 18 8-4 17-6 21 1 2 3 2 6 2 10 2 2 4 5 4 8Z"/><path fill="#FF382E" d="m200 345 1-1-1-2-2 2 2 1ZM194 340l1-2-1-1-2 1 2 2ZM220 312l1-1-1-2-1 2 1 1Z"/><path fill="#fff" d="m198 312-1-3-10 3v-10h-2v10l-10-3-1 3 10 3-6 7 2 2 6-8 6 8 2-2-6-7 10-3Z"/><path fill="#FFC743" d="M186 317c2 0 3-2 3-3 0-2-1-3-3-3s-3 1-3 3c0 1 1 3 3 3Z"/><path fill="#FF382E" d="M186 304c2 0 3-2 3-3 0-2-1-3-3-3s-3 1-3 3c0 1 1 3 3 3ZM173 313c2 0 3-2 3-3 0-2-1-3-3-3s-3 1-3 3c0 1 1 3 3 3ZM178 327c2 0 3-1 3-3 0-1-1-2-3-2s-3 1-3 2c0 2 1 3 3 3ZM194 327c2 0 3-1 3-3 0-1-1-2-3-2s-3 1-3 2c0 2 1 3 3 3ZM199 313c2 0 3-2 3-3 0-2-1-3-3-3s-3 1-3 3c0 1 1 3 3 3Z"/></svg>