<svg xmlns="http://www.w3.org/2000/svg" width="56" height="56" fill="none"><path fill="#fff" d="M48 49.4c.7.5 1.6.3 2.2-.5 3.7-5.3 5.8-12 5.8-19 0-7.2-2.1-13.9-5.8-19.1-.6-.8-1.5-1-2.3-.5-.7.5-.8 1.5-.3 2.3a30.8 30.8 0 0 1 0 34.4c-.5.9-.4 1.8.3 2.4ZM22.6 48c1.4 0 2.3-1 2.3-2.3V13.9c0-1.3-1-2.4-2.3-2.4-1 0-1.6.5-2.7 1.4l-9.4 8.3-.5.2H4.2c-2.8 0-4.2 1.4-4.2 4.4v8c0 3 1.4 4.4 4.2 4.4h6l.4.1 9.4 8.4c1 .9 1.7 1.3 2.7 1.3M40 44c.8.5 1.7.3 2.3-.5 2.6-3.7 4.2-8.6 4.2-13.7 0-5-1.5-10-4.2-13.6-.6-.8-1.5-1-2.3-.5-.7.5-.9 1.5-.3 2.4a21.1 21.1 0 0 1 0 23.5c-.5.9-.4 1.8.3 2.3Zm-18.3-.2c-.1 0-.3 0-.4-.2l-8.8-8c-.5-.4-.9-.4-1.4-.4H4.4c-.8 0-1.2-.4-1.2-1.2v-8.4c0-.8.4-1.2 1.2-1.2H11c.5 0 .9 0 1.4-.5l8.8-8 .4-.2c.1 0 .2.1.2.3v27.5c0 .2 0 .3-.2.3M32 38.6c.6.5 1.6.3 2.2-.5 1.6-2 2.5-5.1 2.5-8.3 0-3-1-6.1-2.5-8.3-.6-.7-1.5-.9-2.2-.4-1 .6-1 1.6-.4 2.4a11 11 0 0 1 1.9 6.3c0 2.4-.8 4.8-1.9 6.3-.6.9-.5 1.9.4 2.5"/></svg>