<svg xmlns="http://www.w3.org/2000/svg" width="106" height="106" fill="none"><g clip-path="url(#a)"><path fill="#000" d="M33.1 46.4a6.4 6.4 0 0 1-4.6-2c-.6-.5-1.1-1.2-1.5-2-.4-.9-.5-1.8-.5-2.6a6.4 6.4 0 0 1 2-4.7c.5-.6 1.2-1 2-1.5.9-.3 1.7-.5 2.6-.5a6.4 6.4 0 0 1 4.7 2c.6.5 1 1.2 1.4 2 .4.9.6 1.8.5 2.6a6.4 6.4 0 0 1-1.9 4.7c-.6.6-1.3 1-2 1.5-1 .3-1.8.5-2.7.5ZM73 33a6.4 6.4 0 0 1 4.6 2c.6.5 1.1 1.2 1.5 2 .4.9.5 1.8.5 2.6a6.4 6.4 0 0 1-2 4.7c-.5.6-1.2 1-2 1.5-.9.3-1.7.5-2.6.5a6.4 6.4 0 0 1-4.7-2c-.6-.5-1-1.2-1.4-2-.4-.9-.6-1.8-.5-2.6a6.4 6.4 0 0 1 1.9-4.7c.6-.6 1.3-1 2-1.5 1-.3 1.8-.5 2.7-.5ZM53 0a52.9 52.9 0 1 1 0 106A52.9 52.9 0 1 1 53 0Zm0 99.4a45.2 45.2 0 0 0 32.8-13.6 48.3 48.3 0 0 0 12-20.5 45.2 45.2 0 0 0-12-45 48.3 48.3 0 0 0-20.5-12 45.2 45.2 0 0 0-45 12 48.3 48.3 0 0 0-12 20.4 45.2 45.2 0 0 0 12 45 48.3 48.3 0 0 0 20.4 12c4 1.2 8 1.7 12.3 1.7Zm0-33.2a32.2 32.2 0 0 1 24.7 11.2l-5 4.4a25.5 25.5 0 0 0-19.7-9c-3.9 0-7.5.9-10.8 2.4a27.6 27.6 0 0 0-9 6.6l-4.9-4.4A33.3 33.3 0 0 1 53 66.2Z"/></g><defs><clipPath id="a"><path fill="#fff" d="M0 0h106v106H0z"/></clipPath></defs></svg>