<svg width="94" height="158" viewBox="0 0 94 158" fill="none" xmlns="http://www.w3.org/2000/svg">
<path d="M91.3829 30.5076C90.5257 43.4683 84.0106 44.0665 81.2674 43.6677C82.1246 42.2719 82.9819 40.6767 83.6677 38.8822C88.2968 28.3142 83.6677 16.1511 85.0393 15.5529C91.5544 11.7644 87.7825 0 87.7825 0L86.2394 0.398796C88.2968 6.58006 86.5823 10.9668 83.3248 12.9607C75.0952 17.7462 71.3233 7.77644 71.3233 7.77644L70.6375 9.96979C73.7236 18.145 82.4675 18.145 82.4675 18.145L82.639 26.3202C76.4668 36.0906 73.7236 26.3202 73.7236 26.3202L73.3807 28.9124C78.5242 39.0816 82.1246 30.1088 82.1246 30.1088C81.7817 37.6858 78.1813 42.2719 74.2379 45.0634C66.5227 50.6465 58.4645 49.2508 58.4645 49.2508C62.7508 45.6616 64.2938 41.6737 63.608 36.0906C62.9222 30.3082 60.6934 30.9063 56.4071 27.3172C53.6639 25.1239 52.1208 22.1329 51.6065 16.5499C50.9207 10.9668 57.7787 6.97885 57.7787 6.97885L56.9214 5.18429C44.577 10.568 50.9207 24.3263 50.9207 24.3263C46.6344 24.5257 46.1201 24.5257 43.7198 17.3474C41.3195 10.1692 35.4902 14.5559 35.4902 14.5559L35.8331 15.9517C40.2908 12.3625 42.1767 20.139 42.1767 20.139C43.3769 29.3112 50.5778 28.713 50.5778 28.713C63.2651 31.9033 54.6926 53.8369 44.2341 50.6465C28.1178 45.6616 30.6896 41.2749 30.6896 41.2749C40.2908 35.0937 33.2613 25.3233 33.2613 25.3233L31.7183 26.719C36.8618 29.1118 31.7183 41.0755 26.4033 37.6858C20.574 33.8973 25.5461 26.9184 25.5461 26.9184L23.8316 27.3172C18.6881 37.0876 27.9464 41.2749 27.9464 41.2749C28.2893 45.0634 29.6609 47.6556 31.2039 49.4502C22.8029 48.852 4.97206 45.0635 10.4585 23.3293C10.4585 23.3293 26.2319 24.5257 27.0891 7.57704L24.8603 6.58007C24.8603 6.58007 23.6601 20.7372 10.1156 19.9396C10.1156 19.9396 -0.171453 17.148 5.65785 3.78852L3.7719 3.38973C3.7719 3.38973 -3.429 15.5529 7.37236 22.9305C7.37236 22.9305 4.4577 32.5015 7.71525 41.0755C3.429 43.4683 0.342897 36.8882 0.342897 36.8882L0 40.8761C3.7719 46.0604 7.20091 44.6647 8.74396 43.6677C12.173 50.0483 19.8882 55.432 35.8331 55.0332L35.6616 157.722H62.9222L59.4932 55.0332C67.7228 53.6375 74.4094 53.0393 79.7243 45.6616C92.0687 49.0514 93.0974 30.5076 93.0974 30.5076H91.3829Z" fill="#65320B"/>
</svg>
