<svg xmlns="http://www.w3.org/2000/svg" width="41" height="45" fill="none"><path fill="#3C3737" d="M20.56 35.67c.5 0 .93-.19 1.28-.56.35-.38.52-.84.52-1.39 0-.54-.18-1-.53-1.38a1.67 1.67 0 0 0-1.27-.56c-.5 0-.93.18-1.28.56-.34.38-.52.84-.52 1.39 0 .54.18 1 .53 1.38.35.38.77.56 1.27.56M19.4 27.5h2.2c.05-1.07.24-1.95.55-2.62.32-.67.96-1.53 1.94-2.57a16.72 16.72 0 0 0 2.27-2.96c.5-.87.75-1.88.75-3.03a6 6 0 0 0-1.9-4.65 6.4 6.4 0 0 0-4.47-1.74c-1.64 0-3.03.49-4.18 1.45a8.87 8.87 0 0 0-2.5 3.33l2.09.94c.36-.9.88-1.7 1.56-2.38.68-.7 1.66-1.04 2.94-1.04 1.48 0 2.56.44 3.24 1.32a4.63 4.63 0 0 1 1.02 2.9c0 .86-.21 1.62-.64 2.3-.43.66-.98 1.34-1.66 2.02a12.44 12.44 0 0 0-2.6 3.36c-.4.92-.61 2.04-.61 3.37Zm1.12 17.5c-2.84 0-5.5-.59-8-1.76A20.73 20.73 0 0 1 6 38.48a23.2 23.2 0 0 1-6-15.72A23.25 23.25 0 0 1 6 7.02c1.84-2 4.01-3.59 6.5-4.75a18.64 18.64 0 0 1 8-1.75c2.83 0 5.5.58 7.99 1.74A20.8 20.8 0 0 1 35 7.02a23.33 23.33 0 0 1 6 15.72 23.13 23.13 0 0 1-6 15.74c-1.84 2-4 3.59-6.5 4.75a18.66 18.66 0 0 1-8 1.75Zm-.01-2.48c5.09 0 9.4-1.91 12.93-5.74 3.53-3.83 5.3-8.5 5.3-14.02s-1.77-10.2-5.3-14.02A16.92 16.92 0 0 0 20.5 2.99c-5.09 0-9.4 1.91-12.93 5.74-3.53 3.83-5.3 8.5-5.3 14.02s1.77 10.19 5.3 14.02A16.92 16.92 0 0 0 20.5 42.5Z"/></svg>