<svg xmlns="http://www.w3.org/2000/svg" width="108" height="110" viewBox="0 0 108 109"><defs><clipPath id="a"><path d="M.5 4h107.2v101H.5Zm0 0"/></clipPath></defs><path d="M23 87.7c10.3 0 10.3-4.6 20.7-4.6 10.4 0 10.4 4.6 20.8 4.6s10.4-4.6 20.7-4.6c10.4 0 10.4 4.6 20.7 4.6v15H2.3V83c10.3 0 10.3 4.6 20.7 4.6Zm83-45v22c-10.4 0-10.4-4.7-20.8-4.7-10.3 0-10.3 4.6-20.7 4.6C54 64.6 54 60 43.7 60S33.3 64.6 23 64.6C12.6 64.6 12.6 60 2.3 60V42.6Zm0 0" style="stroke:none;fill-rule:nonzero;fill:#704324;fill-opacity:1"/><path d="M64.5 64.6c10.4 0 10.4-4.7 20.7-4.7 10.4 0 10.4 4.7 20.7 4.7v23c-10.3 0-10.3-4.5-20.7-4.5-10.3 0-10.3 4.6-20.7 4.6-10.4 0-10.4-4.6-20.8-4.6S33.3 87.7 23 87.7c-10.4 0-10.4-4.6-20.7-4.6V60c10.3 0 10.3 4.6 20.7 4.6 10.3 0 10.3-4.6 20.7-4.6 10.4 0 10.4 4.6 20.8 4.6Zm0 0" style="stroke:none;fill-rule:nonzero;fill:#a26234;fill-opacity:1"/><path d="M32.2 34.5s1.7-9.8 7.2-17.4l.9.2h28.6c5.3 7.6 7 17.3 7 17.3s1.7-9.9 7.3-17.5l.8.2h22v25.4H2.3V17.3h22.9c5.4 7.6 7 17.4 7 17.4Zm0 0" style="stroke:none;fill-rule:nonzero;fill:#a58763;fill-opacity:1"/><path d="M64.5 87.7C54 87.7 54 83 43.7 83S33.3 87.7 23 87.7c-10.4 0-10.4-4.6-20.7-4.6v19.6h103.6v-15c-10.3 0-10.3-4.6-20.7-4.6-10.3 0-10.3 4.6-20.7 4.6ZM43.7 60c6.8 0 9.2 2 12.9 3.3a81.7 81.7 0 0 1-17-20.7H2.3V60c10.3 0 10.3 4.6 20.7 4.6 10.3 0 10.3-4.6 20.7-4.6Zm0 0" style="stroke:none;fill-rule:nonzero;fill:#61391b;fill-opacity:1"/><path d="M56.6 63.3C52.9 62 50.5 60 43.7 60c-10.4 0-10.4 4.6-20.7 4.6-10.4 0-10.4-4.6-20.7-4.6v23c10.3 0 10.3 4.7 20.7 4.7 10.3 0 10.3-4.6 20.7-4.6 10.4 0 10.4 4.6 20.8 4.6s10.4-4.6 20.7-4.6c10.4 0 10.4 4.6 20.7 4.6V83a80.2 80.2 0 0 1-49.3-19.7Zm0 0" style="stroke:none;fill-rule:nonzero;fill:#8e562b;fill-opacity:1"/><path d="M33.5 29.5c-.5 1.6-1 3.3-1.3 5 0 0-1.6-9.6-7-17.3h-23v25.4h37.4a80.6 80.6 0 0 1-6.1-13.1Zm0 0" style="stroke:none;fill-rule:nonzero;fill:#997d5c;fill-opacity:1"/><g clip-path="url(#a)"><path d="M86.7 15.5c2.1-2.3 4.5-3.8 7.1-4.7l-1-3.3a22.2 22.2 0 0 0-11 8.6c-1.7 2.2-3 4.6-4.1 7.1V4.5h-3.4v18.7a46 46 0 0 0-4-7c-2.6-4-6.5-7-11-8.7l-1.1 3.3c2.5.9 5 2.5 7 4.7H43a17 17 0 0 1 7.1-4.7l-1-3.3A22.2 22.2 0 0 0 38 16a40 40 0 0 0-4.1 7.1V4.5h-3.4v18.7c-1-2.3-2.3-4.7-4-7-2.6-4-6.5-7-11-8.7l-1.1 3.3c2.6.9 5 2.5 7.1 4.7H.6v89h16.6v-3.6H4.1V85c3.7.2 5.8 1.1 8 2 2.6 1.3 5.5 2.5 11 2.5a23 23 0 0 0 11-2.5c2.6-1 5-2.1 9.7-2.1 4.8 0 7.2 1 9.7 2.1a23 23 0 0 0 11 2.5c5.6 0 8.4-1.2 11.1-2.5 2.5-1 4.9-2.1 9.7-2.1 4.8 0 7.1 1 9.6 2.1a23 23 0 0 0 9.4 2.5v11.5H21.9v3.5h85.8v-89H86.8Zm9.6 68.3c-2.7-1.2-5.6-2.5-11.1-2.5-5.6 0-8.3 1.3-11 2.5-3 1.5-6.4 2.2-9.7 2.1-4.8 0-7.2-1-9.7-2.1-2.7-1.2-5.5-2.5-11-2.5-5.6 0-8.4 1.3-11.1 2.5a20.2 20.2 0 0 1-9.7 2.1 20 20 0 0 1-9.6-2.1c-3-1.5-6.2-2.3-9.4-2.4V61.8c3.7.2 5.8 1.1 8 2 2.6 1.2 5.5 2.5 11 2.5 5.6 0 8.4-1.3 11-2.5 2.6-1 5-2 9.7-2 4.8 0 7.2 1 9.7 2 2.7 1.2 5.5 2.5 11 2.5 5.6 0 8.4-1.3 11.1-2.5 3-1.4 6.3-2.2 9.7-2 4.8 0 7.1 1 9.6 2 2.5 1.1 5 2.2 9.4 2.4V86c-3.7-.2-5.8-1.2-8-2.1ZM16 40.8v3.6h88.1v18.4c-3.7-.2-5.8-1.2-8-2-2.6-1.3-5.5-2.6-11-2.6-5.6 0-8.3 1.3-11 2.5-3 1.5-6.4 2.2-9.7 2.1-4.8 0-7.2-1-9.7-2-2.7-1.3-5.5-2.6-11-2.6-5.6 0-8.4 1.3-11.1 2.5-2.5 1-4.9 2.1-9.7 2.1-4.8 0-7.1-1-9.6-2-3-1.5-6.2-2.4-9.4-2.5v-14h7.5V41H4V29.3h16.6V26H4v-7h20.2a46 46 0 0 1 6 14h-6v3.4h16.1v-3.5h-6a45 45 0 0 1 6-14v.1H68a46 46 0 0 1 5.8 14H68v3.4h16.2v-3.5h-6a45 45 0 0 1 6-14v.1h20.1v7H87.5v3.4h16.7V41Zm0 0" style="stroke:none;fill-rule:nonzero;fill:#000;fill-opacity:1"/></g><path d="M21.9 53.6H16v3.5h5.8Zm0 0" style="stroke:none;fill-rule:nonzero;fill:#fff;fill-opacity:1"/><path d="M27.7 49h-5.8v3.5h5.7V49Zm0 0" style="stroke:none;fill-rule:nonzero;fill:#000;fill-opacity:1"/><path d="M43.7 49H38v3.5h5.7Zm0 0" style="stroke:none;fill-rule:nonzero;fill:#fff;fill-opacity:1"/><path d="M65.6 53.6H60v3.5h5.7Zm0 0" style="stroke:none;fill-rule:nonzero;fill:#000;fill-opacity:1"/><path d="M95.6 49h-5.8v3.5h5.7V49Zm0 0" style="stroke:none;fill-rule:nonzero;fill:#fff;fill-opacity:1"/><path d="M95.6 74.4h-5.8v3.5h5.7v-3.5Zm0 0" style="stroke:none;fill-rule:nonzero;fill:#000;fill-opacity:1"/><path d="M70.2 74.4h-5.7v3.5h5.7Zm0 0" style="stroke:none;fill-rule:nonzero;fill:#fff;fill-opacity:1"/><path d="M65.6 69.8H60v3.5h5.7Zm-23 0h-5.7v3.5h5.6Zm-25.4 4.6h-5.7v3.5h5.7Zm0 0" style="stroke:none;fill-rule:nonzero;fill:#000;fill-opacity:1"/><path d="M28.8 74.4H23v3.5h5.8Zm0 0" style="stroke:none;fill-rule:nonzero;fill:#fff;fill-opacity:1"/><path d="M15 92.9H9.1v3.4h5.7Zm0 0" style="stroke:none;fill-rule:nonzero;fill:#000;fill-opacity:1"/><path d="M42.5 88.3H37v3.4h5.6Zm0 0" style="stroke:none;fill-rule:nonzero;fill:#fff;fill-opacity:1"/><path d="M51.8 92.9H46v3.4h5.8Zm48.4 0h-5.7v3.4h5.7V93Zm0 0" style="stroke:none;fill-rule:nonzero;fill:#000;fill-opacity:1"/><path d="M81.7 92.9H76v3.4h5.7Zm0 0" style="stroke:none;fill-rule:nonzero;fill:#fff;fill-opacity:1"/><path d="M48.3 25.9h-4.6v3.4h4.6Zm3.5 4.6h-4.5v3.4h4.5v-3.4Zm13.8-4.6H61v3.4h4.6Zm-48.4 7h-4.6v3.4h4.6Zm78.4 0H91v3.4h4.6Zm0 0" style="stroke:none;fill-rule:nonzero;fill:#000;fill-opacity:1"/></svg>