<svg width="89" height="82" viewBox="0 0 89 82" fill="none" xmlns="http://www.w3.org/2000/svg">
<path d="M34.0395 38.4314C34.5369 36.9663 33.6996 35.3914 32.1688 34.9155C30.638 34.4395 28.9945 35.2427 28.4972 36.706C27.9999 38.1711 28.8372 39.746 30.368 40.2219C31.8988 40.6979 33.5422 39.8947 34.0395 38.4314ZM37.9209 49.8643C36.6194 48.9589 34.7972 49.234 33.8511 50.4816C32.9051 51.7274 33.1945 53.4714 34.4961 54.3769C35.7976 55.2824 37.6198 55.0054 38.5659 53.7596C39.5119 52.5139 39.2225 50.7698 37.9209 49.8643ZM44.2014 31.3642C45.8099 31.3642 47.1154 30.1166 47.1154 28.5752C47.1154 27.0357 45.8099 25.7862 44.2014 25.7862C42.5929 25.7862 41.2875 27.0357 41.2875 28.5752C41.2875 30.1166 42.5929 31.3642 44.2014 31.3642ZM50.4819 49.8643C49.1804 50.7698 48.8909 52.5139 49.837 53.7596C50.7831 55.0054 52.6052 55.2824 53.9068 54.3769C55.2084 53.4714 55.4978 51.7274 54.5517 50.4816C53.6057 49.234 51.7835 48.9589 50.4819 49.8643ZM46.9736 40.7295C46.5947 39.6102 45.4952 38.8014 44.2014 38.8014C42.9076 38.8014 41.8081 39.6102 41.4293 40.7295C41.338 41.001 41.2875 41.2892 41.2875 41.5904C41.2875 43.1318 42.5929 44.3794 44.2014 44.3794C45.8099 44.3794 47.1154 43.1318 47.1154 41.5904C47.1154 41.2892 47.0649 41.001 46.9736 40.7295ZM54.3633 38.4314C54.8606 39.8947 56.5041 40.6979 58.0349 40.2219C59.5657 39.746 60.4029 38.1711 59.9056 36.706C59.4083 35.2427 57.7649 34.4395 56.2341 34.9155C54.7033 35.3914 53.866 36.9663 54.3633 38.4314ZM88.3438 38.0242C89.1597 45.4448 81.4105 49.446 72.4511 50.3757C79.1279 56.1674 82.9394 63.7646 77.7234 69.3091C75.2738 71.9121 72.0335 73.4237 68.663 73.816C67.2332 76.7612 64.7292 79.2452 61.3859 80.6695C54.2642 83.7057 47.8944 77.8879 44.2014 70.0193C40.5085 77.8879 34.1386 83.7057 27.017 80.6695C23.6737 79.2452 21.1696 76.7612 19.7399 73.816C16.3694 73.4237 13.1291 71.9121 10.6795 69.3091C5.4635 63.7646 9.27494 56.1674 15.9517 50.3757C6.99235 49.446 -0.756791 45.4448 0.0591122 38.0242C0.44181 34.5399 2.13578 31.4943 4.6204 29.2817C3.96962 26.093 4.46888 22.6756 6.29883 19.6412C10.1977 13.1801 18.924 14.3031 26.743 18.5907C24.8995 10.1494 26.4788 1.85871 34.1037 0.30618C37.6839 -0.420812 41.235 0.179747 44.2014 1.7583C47.1678 0.179747 50.7189 -0.420812 54.2992 0.30618C61.924 1.85871 63.5034 10.1494 61.6598 18.5907C69.4789 14.3031 78.2052 13.1801 82.104 19.6412C83.934 22.6756 84.4332 26.093 83.7825 29.2817C86.2671 31.4943 87.9611 34.5399 88.3438 38.0242Z" fill="#FF8882"/>
<path d="M57.7285 72.9284C58.5331 72.9284 59.1854 72.304 59.1854 71.5339C59.1854 70.7637 58.5331 70.1394 57.7285 70.1394C56.9238 70.1394 56.2715 70.7637 56.2715 71.5339C56.2715 72.304 56.9238 72.9284 57.7285 72.9284Z" fill="#FF382E"/>
<path d="M51.9003 67.3504C52.705 67.3504 53.3573 66.7261 53.3573 65.9559C53.3573 65.1858 52.705 64.5615 51.9003 64.5615C51.0957 64.5615 50.4434 65.1858 50.4434 65.9559C50.4434 66.7261 51.0957 67.3504 51.9003 67.3504Z" fill="#FF382E"/>
<path d="M78.1367 39.9252C78.9413 39.9252 79.5936 39.3009 79.5936 38.5307C79.5936 37.7606 78.9413 37.1362 78.1367 37.1362C77.332 37.1362 76.6797 37.7606 76.6797 38.5307C76.6797 39.3009 77.332 39.9252 78.1367 39.9252Z" fill="#FF382E"/>
<path d="M56.1998 39.3258L55.2994 36.6733L45.6595 39.6713V29.9699H42.7456V39.6713L33.1055 36.6733L32.2051 39.3258L41.8452 42.3238L35.8873 50.1723L38.2447 51.8115L44.2026 43.9631L50.1604 51.8115L52.5178 50.1723L46.5599 42.3238L56.1998 39.3258Z" fill="white"/>
<path d="M44.2011 44.3796C45.8104 44.3796 47.115 43.1309 47.115 41.5906C47.115 40.0503 45.8104 38.8016 44.2011 38.8016C42.5917 38.8016 41.2871 40.0503 41.2871 41.5906C41.2871 43.1309 42.5917 44.3796 44.2011 44.3796Z" fill="#FFC743"/>
<path d="M44.2011 31.3644C45.8104 31.3644 47.115 30.1157 47.115 28.5754C47.115 27.0351 45.8104 25.7864 44.2011 25.7864C42.5917 25.7864 41.2871 27.0351 41.2871 28.5754C41.2871 30.1157 42.5917 31.3644 44.2011 31.3644Z" fill="#FF382E"/>
<path d="M31.2694 40.3577C32.8787 40.3577 34.1834 39.109 34.1834 37.5687C34.1834 36.0284 32.8787 34.7797 31.2694 34.7797C29.6601 34.7797 28.3555 36.0284 28.3555 37.5687C28.3555 39.109 29.6601 40.3577 31.2694 40.3577Z" fill="#FF382E"/>
<path d="M36.2089 54.9091C37.8182 54.9091 39.1228 53.6604 39.1228 52.1201C39.1228 50.5798 37.8182 49.3311 36.2089 49.3311C34.5995 49.3311 33.2949 50.5798 33.2949 52.1201C33.2949 53.6604 34.5995 54.9091 36.2089 54.9091Z" fill="#FF382E"/>
<path d="M52.1952 54.9091C53.8045 54.9091 55.1091 53.6604 55.1091 52.1201C55.1091 50.5798 53.8045 49.3311 52.1952 49.3311C50.5859 49.3311 49.2812 50.5798 49.2812 52.1201C49.2812 53.6604 50.5859 54.9091 52.1952 54.9091Z" fill="#FF382E"/>
<path d="M57.1346 40.3577C58.744 40.3577 60.0486 39.109 60.0486 37.5687C60.0486 36.0284 58.744 34.7797 57.1346 34.7797C55.5253 34.7797 54.2207 36.0284 54.2207 37.5687C54.2207 39.109 55.5253 40.3577 57.1346 40.3577Z" fill="#FF382E"/>
</svg>
