<svg xmlns="http://www.w3.org/2000/svg" width="283" height="283" fill="none"><path fill="#40C057" d="M146.198 212.25c.056-8.236.442-60.524 1.327-72.85 1.05-13.377 6.08-32.391 9.12-46.817 3.04-14.426-4.643-21.833-4.643-21.833s7.407 7.407-3.372 39.797c-10.336 30.953-7.738 96.176-7.462 101.703h5.03Zm13.763-57.484c-9.286 21.335-10.502 47.756-10.612 57.484h9.286c-.774-10.834-1.935-42.229 7.517-59.474 11.607-21.17 21.722-17.688 21.722-17.688s-16.416-7.019-27.968 19.678h.055Z"/><path fill="#40C057" d="M144.54 212.25h7.075c.829-11.663 3.98-48.585 10.889-67.986 8.291-23.215 2.377-47.48 2.377-47.48s3.095 23.823-7.904 49.193c-9.397 21.557-11.884 56.379-12.437 66.273Zm-10.612 0h9.12c-1.106-6.412-8.789-50.686-16.859-66.881-8.733-17.356-15.2-25.481-31.119-31.672 0 0 19.457 8.347 28.577 45.877a466.474 466.474 0 0 1 10.281 52.676Z"/><path fill="#40C057" d="M134.093 212.25c-2.211-10.502-10.888-45.214-32.556-54.942 0 0 12.05 12.934 17.909 27.195a121.189 121.189 0 0 1 6.909 27.747h7.738Z"/><g fill="#F8AF18" clip-path="url(#a)"><path d="M141.5 86.227a6.633 6.633 0 1 0 0-13.267 6.633 6.633 0 0 0 0 13.267ZM163.609 110.547a8.844 8.844 0 1 0 0-17.688 8.844 8.844 0 0 0 0 17.688ZM119.391 110.547a8.844 8.844 0 0 0 8.843-8.844 8.843 8.843 0 1 0-17.687 0 8.844 8.844 0 0 0 8.844 8.844ZM84.016 112.758a6.633 6.633 0 1 0-.001-13.266 6.633 6.633 0 0 0 0 13.266ZM198.984 112.758a6.633 6.633 0 1 0 0-13.266 6.633 6.633 0 0 0 0 13.266ZM176.875 88.438a4.422 4.422 0 1 0 0-8.845 4.422 4.422 0 0 0 0 8.844ZM106.125 88.438a4.422 4.422 0 1 0 0-8.845 4.422 4.422 0 0 0 0 8.844Z"/></g><defs><clipPath id="a"><path fill="#fff" d="M77.383 72.96h128.234v39.798H77.383z"/></clipPath></defs></svg>