<svg width="132" height="123" viewBox="0 0 132 123" fill="none" xmlns="http://www.w3.org/2000/svg">
<path d="M69.549 70.168C68.2814 71.5217 66.4896 72.2349 64.6465 72.1194C64.0089 72.0785 48.8542 71.0243 33.3536 62.5722C18.7058 54.5848 1.02973 38.3778 0.00335708 6.52407C-0.0530803 4.78689 0.604152 3.10415 1.81821 1.87498C3.67015 0 5.84364 0 6.77191 0C7.42848 0 22.8651 0.112226 38.7703 9.7627C47.0269 14.7727 53.8912 21.4329 59.1734 29.559C65.5541 39.3758 69.6031 51.3366 71.2083 65.1082C71.4242 66.961 70.8162 68.814 69.549 70.168Z" fill="#6DC82A"/>
<path d="M59.3676 29.8705C56.763 34.7347 54.5662 40.2132 52.9899 46.385C51.5724 50.6689 49.4077 58.1954 47.6211 68.6088C57.0445 71.5931 64.212 72.0918 64.6462 72.1194C66.4896 72.2353 68.2811 71.5221 69.5487 70.168C70.8159 68.814 71.4239 66.961 71.2077 65.1089C69.6192 51.4807 65.6335 39.6292 59.3676 29.8705Z" fill="#5EAC24"/>
<path d="M64.2211 59.3853L50.8376 46.1788L47.3083 28.3826C47.029 26.9721 45.6729 26.0594 44.2787 26.3416C42.8848 26.6245 41.9825 27.9974 42.2617 29.4073L44.3108 39.7387L36.9297 32.4553L33.3518 14.4144C33.0726 13.0039 31.7158 12.0922 30.3222 12.3734C28.9284 12.6563 28.026 14.0289 28.3053 15.4391L30.4026 26.0149L13.1787 9.02024C12.1602 8.01618 10.5321 8.03743 9.53949 9.06672C8.54724 10.0967 8.56792 11.7452 9.58543 12.7489L28.5244 31.437L15.3128 31.2085C13.893 31.1693 12.7203 32.3298 12.6957 33.7678C12.6718 35.2058 13.8038 36.3912 15.2249 36.4161L33.8975 36.7391L42.683 45.4085L29.2693 45.177C27.861 45.1452 26.6768 46.2983 26.6522 47.7363C26.6282 49.1744 27.7602 50.3597 29.1813 50.3846L48.0557 50.7107L60.6265 63.1147C61.1272 63.6084 61.7752 63.8541 62.4226 63.8541C63.092 63.8541 63.7607 63.5911 64.2657 63.0678C65.2589 62.0376 65.2386 60.389 64.2211 59.3853Z" fill="#4E901E"/>
<path d="M130.222 1.96361C128.954 0.609924 127.162 -0.103278 125.319 0.012269C124.682 0.0531088 109.527 1.10731 94.0262 9.55948C82.115 16.0543 68.2025 27.9849 62.8672 49.3431C59.9532 58.0266 53.5334 81.5759 55.0349 117.033C55.1648 120.101 57.6632 122.5 60.6688 122.499C60.7502 122.499 60.8322 122.498 60.9146 122.494C64.0281 122.359 66.4441 119.696 66.3109 116.544C65.5329 98.1755 67.0275 83.1587 68.9536 72.0779C73.2878 71.8265 86.2018 70.4028 99.4429 62.3689C107.7 57.3589 114.564 50.6987 119.846 42.5726C126.227 32.7558 130.276 20.7951 131.881 7.02343C132.097 5.1707 131.489 3.31763 130.222 1.96361Z" fill="#91DC5A"/>
<path d="M122.12 9.06672C121.127 8.0371 119.498 8.01618 118.481 9.02024L101.258 26.0146L103.355 15.4391C103.635 14.0289 102.732 12.6566 101.338 12.3734C99.9466 12.0919 98.5884 13.0039 98.3089 14.4144L94.7307 32.4553L87.3499 39.7387L89.399 29.4072C89.6786 27.9971 88.7759 26.6248 87.382 26.3416C85.9888 26.0594 84.632 26.9721 84.3524 28.3826L80.8228 46.1791L67.4389 59.3856C66.4211 60.3897 66.4011 62.0382 67.393 63.0678C67.8977 63.5911 68.5661 63.8538 69.2361 63.8538C69.8838 63.8538 70.5322 63.6081 71.0322 63.1143L83.603 50.7103L102.478 50.3843C103.899 50.3597 105.031 49.1744 105.007 47.736C104.983 46.3129 103.836 45.1764 102.435 45.1764C102.42 45.1764 102.405 45.1764 102.39 45.1767L88.976 45.4081L97.7616 36.7388L116.434 36.4158C117.855 36.3912 118.987 35.2058 118.963 33.7675C118.939 32.3444 117.792 31.2079 116.391 31.2079C116.376 31.2079 116.361 31.2079 116.346 31.2082L103.135 31.4366L122.074 12.7486C123.092 11.7449 123.112 10.0964 122.12 9.06672Z" fill="#5EAC24"/>
</svg>
