<svg width="88" height="107" viewBox="0 0 88 107" fill="none" xmlns="http://www.w3.org/2000/svg">
<path d="M40.0337 25.6674C36.5375 25.0349 21.9835 21.1557 26.6227 0.844875C26.7466 0.302512 27.2195 -0.0576343 27.7273 0.00762097C32.1038 0.570306 50.9031 4.23612 41.1094 25.0742C40.9062 25.5064 40.4719 25.7466 40.0337 25.6674Z" fill="#59C230"/>
<path d="M27.727 0.00764026C27.3078 -0.0463252 26.9156 0.192342 26.7207 0.581616C33.331 2.1938 45.1679 7.55941 37.1242 24.8907C38.3471 25.319 39.3823 25.5498 40.0335 25.6676C40.4719 25.7469 40.9059 25.5066 41.1089 25.0745C50.9028 4.23614 32.1035 0.5701 27.727 0.00764026Z" fill="#4EB229"/>
<path d="M43.8979 22.635C43.8979 22.635 21.5818 11.4379 7.29728 29.7665C1.4277 37.298 -1.00806 47.3003 0.380495 57.059C2.1259 69.3268 6.90057 89.5128 19.8934 102.366C19.8934 102.366 25.8904 111.465 43.8979 102.366C61.9054 111.465 67.9024 102.366 67.9024 102.366C80.8953 89.5126 85.6702 69.3266 87.4156 57.059C88.8041 47.3003 86.3684 37.2977 80.4988 29.7663C66.214 11.4379 43.8979 22.635 43.8979 22.635Z" fill="#F54432"/>
<path d="M39.8298 22.635C39.8298 22.635 40.5706 22.264 41.8641 21.7684C38.9387 20.6473 33.1745 18.8858 26.6777 19.3153C34.1447 19.7843 39.8298 22.635 39.8298 22.635Z" fill="#E83826"/>
<path d="M39.8298 102.366C34.9375 104.838 30.9333 105.965 27.6934 106.298C31.0737 106.688 35.7036 106.127 41.8639 103.339C41.2029 103.04 40.5264 102.718 39.8298 102.366Z" fill="#E83826"/>
<path d="M80.4993 29.7665C73.424 20.6881 64.3793 18.8549 57.051 19.3153C63.4779 19.74 70.6192 22.3093 76.4309 29.7665C82.3005 37.298 84.7363 47.3003 83.3477 57.0592C81.6023 69.3268 76.8276 89.513 63.8348 102.366C63.8348 102.366 61.6685 105.649 56.0352 106.298C64.7203 107.191 67.9032 102.366 67.9032 102.366C80.896 89.5128 85.6709 69.3268 87.4161 57.0592C88.8045 47.3003 86.3689 37.298 80.4993 29.7665Z" fill="#E83826"/>
</svg>
