<svg xmlns="http://www.w3.org/2000/svg" width="35" height="39" fill="none"><path fill="#3C3737" d="M15.75 13.56h3.5v-3.8h-3.5m1.75 24.67c-7.72 0-14-6.8-14-15.18 0-8.37 6.28-15.18 14-15.18s14 6.81 14 15.18c0 8.37-6.28 15.18-14 15.18Zm0-34.16c-2.3 0-4.57.5-6.7 1.45a17.48 17.48 0 0 0-5.67 4.11A19.82 19.82 0 0 0 0 19.25c0 5.03 1.84 9.86 5.13 13.42a17.48 17.48 0 0 0 5.67 4.12c2.13.95 4.4 1.44 6.7 1.44 4.64 0 9.1-2 12.37-5.56A19.82 19.82 0 0 0 35 19.25c0-2.5-.45-4.96-1.33-7.26-.88-2.3-2.17-4.4-3.8-6.16a17.48 17.48 0 0 0-5.67-4.11A16.32 16.32 0 0 0 17.5.27Zm-1.75 28.47h3.5V17.35h-3.5v11.39Z"/></svg>