<svg width="173" height="124" viewBox="0 0 173 124" fill="none" xmlns="http://www.w3.org/2000/svg">
<path d="M2.95547 54.25V61.0703H80.366C79.9492 63.8363 79.3051 67.7769 78.282 71.9828C76.3875 79.9398 72.8258 88.6926 69.1125 91.5723C64.3762 95.2098 57.8211 95.4371 50.3187 94.5656C48.8789 93.6562 44.7867 90.9281 40.8082 87.4043C38.3832 85.2824 36.1098 82.8574 34.7457 80.7355C33.3816 78.5758 33.1164 77.0223 33.4195 76.0371C33.3816 76.2645 33.3816 76.0371 34.2531 75.6961C35.1625 75.3551 36.6023 75.052 38.0801 74.9383C41.0355 74.673 43.9531 74.9383 43.9531 74.9383L44.5594 68.118C44.5594 68.118 43.7258 68.0422 42.4375 68.0043C41.1113 67.9664 39.3684 67.9664 37.5117 68.118C35.6551 68.3074 33.6848 68.6105 31.7902 69.3305C29.9336 70.0504 27.7928 71.3766 26.963 73.9152C25.7315 77.6285 27.0539 81.3039 28.9863 84.373C30.843 87.3664 33.4953 90.0566 36.1855 92.4059C31.0324 91.6859 25.7543 91.2313 20.7716 92.027C19.4493 89.4125 17.7631 86.6465 15.0161 84.4109C11.6362 81.6449 6.82031 79.9398 0.143984 79.7883L0 86.6086C5.62297 86.7223 8.63148 88.0105 10.7041 89.7156C12.1098 90.8523 13.1632 92.3301 14.1294 94.0352C12.8108 94.6793 11.5263 95.4371 10.2911 96.3465C6.27469 99.3398 4.78559 104.266 3.59961 108.547C2.41363 112.791 1.91727 116.504 1.91727 116.504L8.67695 117.414C8.67695 117.414 9.12406 114.117 10.1698 110.366C11.208 106.653 13.2352 102.636 14.3605 101.803C20.7982 97.0285 30.502 98.3547 41.3008 100.136C52.0617 101.916 64.0352 104.076 73.2805 96.9527C76.3117 94.6035 78.5473 91.307 80.3281 87.6316C82.1469 91.6102 84.7613 95.0582 87.9062 98.0516C83.852 99.0746 80.3281 100.893 77.259 103.091C72.1816 106.766 68.1652 111.313 64.073 115.027L68.6199 120.104C71.6512 117.338 74.4172 114.496 77.1832 111.995C78.7367 114.761 80.9344 116.959 83.3973 118.55C87.3379 121.127 91.809 122.453 95.9012 123.438L97.4926 116.845C93.7035 115.898 89.9144 114.686 87.1484 112.867C85.0644 111.503 83.5109 109.949 82.6016 107.714C86.4285 105.251 90.4828 103.773 96.0148 104.076C98.4777 105.478 101.054 106.729 103.707 107.789C113.786 111.768 125.077 113.246 134.966 112.336C141.18 111.73 147.395 108.168 152.927 104C155.427 106.009 157.473 108.434 158.875 110.821C160.884 114.231 161.338 117.527 160.884 119.005L167.325 121.127C168.841 116.694 167.401 111.844 164.748 107.335C163.119 104.607 160.997 101.992 158.383 99.643C158.421 99.643 158.421 99.6051 158.459 99.6051C165.279 93.8836 170.318 88.3137 170.318 88.3137L165.317 83.691C165.317 83.691 160.467 88.9578 154.063 94.3762C147.622 99.7945 139.362 105.061 134.36 105.516C125.645 106.35 115.187 104.986 106.207 101.424C97.2652 97.9 89.9145 92.2543 86.5422 84.8277C85.557 82.668 86.8074 76.4918 89.2324 71.1871C90.3691 68.6863 91.5816 66.4508 92.5668 64.7457C94.0066 65.5035 95.6359 66.4129 97.4547 67.4738C102.38 70.3535 108.026 74.2941 110.375 77.1359C112.118 79.2199 114.392 84.1836 115.945 88.3895C117.499 92.6332 118.484 96.157 118.484 96.157L125.077 94.3383C125.077 94.3383 124.016 90.5492 122.349 86.0402C121.288 83.0469 120 79.7883 118.37 76.8707C119.924 76.6434 121.97 76.6433 124.319 77.098C128.942 78.0074 134.474 80.3187 139.096 83.7289L143.113 78.1969C137.619 74.2184 131.367 71.5281 125.607 70.4293C123.448 70.0125 121.326 69.7473 119.28 69.823C117.347 69.8609 115.528 70.2019 113.899 70.884C110.3 67.3601 105.336 64.2152 100.941 61.6008C100.637 61.4113 100.334 61.2598 100.031 61.0703H172.705V54.25H2.95547Z" fill="#65320B"/>
<path d="M86.8471 53.9609L91.9047 25.7191C94.4531 23.8807 101.981 20.5949 104.058 15.6272C106.803 8.89926 101.353 0.841366 101.236 0.0981617C101.236 -0.684158 91.9047 3.26656 89.1603 9.91628C87.2392 14.532 89.0819 20.7514 89.7876 24.1154L85.4357 48.4455C83.7107 42.4999 80.0253 36.789 77.2025 32.8774C75.9087 29.8654 75.5166 24.2327 72.4194 21.4164C67.401 16.9572 58.7757 18.248 58.07 18.0915C57.3643 17.9351 57.9916 27.7923 63.01 32.2906C67.0482 36.0066 74.3797 35.6155 77.0457 36.0458C80.6526 41.2482 84.6908 47.1938 84.6124 53.2177L84.4556 54H86.8471V53.9609Z" fill="#6DC82A"/>
</svg>
