<svg width="125" height="103" viewBox="0 0 125 103" fill="none" xmlns="http://www.w3.org/2000/svg">
<g clip-path="url(#clip0_61_291)">
<path d="M103.261 0V35.4678C92.1739 41.8045 73.9676 42.0284 62.5004 35.5127C62.2555 35.3783 61.9842 35.2439 61.7394 35.0872C59.7284 33.8556 57.1473 33.5871 55.3534 33.5871H44.837C39.5926 33.5871 35.163 30.833 33.4239 27.0264L20.8693 37.3488C16.1139 41.2897 8.34241 41.2897 3.58704 37.3488C-1.19568 33.4303 -1.19568 27.0264 3.58704 23.1078L28.0438 2.95562C30.3263 1.07486 33.4789 0 36.6852 0H103.261Z" fill="#F1CD99"/>
<path d="M103.261 0V35.4678C92.1736 41.8045 73.9673 42.0284 62.5 35.5127V0H103.261Z" fill="#F0C78D"/>
<path d="M120.924 66.0544H114.103C101.984 66.0544 89.6738 69.4355 77.5271 76.1082C73.4238 78.3695 67.9619 79.4891 62.5 79.4891C57.0381 79.4891 51.5762 78.3695 47.4729 76.108C35.3262 69.4353 23.0164 66.0542 10.8967 66.0542H4.07617C1.82031 66.0544 0 67.5545 0 69.413V99.6413C0 101.5 1.82031 103 4.07617 103H120.924C123.18 103 125 101.5 125 99.6413V69.413C125 67.5545 123.18 66.0544 120.924 66.0544Z" fill="#91867E"/>
<path d="M125 3.35877V43.6631C125 45.5186 123.174 47.0219 120.924 47.0219H104.619C102.369 47.0219 100.543 45.5186 100.543 43.6631V3.35877C100.543 1.50336 102.369 0 104.619 0H120.924C123.174 0 125 1.50336 125 3.35877Z" fill="#FF0C38"/>
<path d="M125 69.413V99.6413C125 101.5 123.18 103 120.924 103H62.5V79.4891C67.9619 79.4891 73.4238 78.3695 77.5271 76.108C89.6738 69.4353 101.984 66.0542 114.103 66.0542H120.924C123.18 66.0544 125 67.5545 125 69.413Z" fill="#847976"/>
<path d="M36.6841 6.71735C35.6243 6.71735 34.5645 7.07563 33.8035 7.70248L9.34698 27.8549C7.74371 29.176 7.74371 31.2808 9.34698 32.6019C10.9234 33.923 13.5318 33.923 15.1082 32.6019L37.1732 14.4202C37.9341 13.7932 38.9671 13.4351 40.0538 13.4351H77.4451C79.7007 13.4351 81.5213 14.9352 81.5213 16.7938C81.5213 18.6525 79.701 20.1526 77.4451 20.1526H44.8362C42.5806 20.1526 40.7601 21.6527 40.7601 23.5114C40.7601 25.37 42.5804 26.8701 44.8362 26.8701H55.3526C57.9344 26.8701 60.3255 27.2061 62.4993 27.8778C63.994 28.3256 65.3799 28.9301 66.6026 29.669C75.733 35.2445 92.0919 34.7519 100.543 28.7511V6.71735H36.6841Z" fill="#F5DDB3"/>
<path d="M100.543 6.71735V28.7503C92.0923 34.7512 75.7336 35.2437 66.6033 29.6682C65.3804 28.9293 63.9946 28.3248 62.5 27.877V20.152H77.4456C79.7012 20.152 81.5217 18.6519 81.5217 16.7932C81.5217 14.9346 79.7014 13.4345 77.4456 13.4345H62.5V6.71735H100.543Z" fill="#F3D3A6"/>
<path d="M62.6762 52.572C64.1553 52.572 65.3543 51.3713 65.3543 49.8902C65.3543 48.409 64.1553 47.2083 62.6762 47.2083C61.1971 47.2083 59.998 48.409 59.998 49.8902C59.998 51.3713 61.1971 52.572 62.6762 52.572Z" fill="#E83826"/>
<path d="M73.3891 52.572C74.8682 52.572 76.0672 51.3713 76.0672 49.8902C76.0672 48.409 74.8682 47.2083 73.3891 47.2083C71.91 47.2083 70.7109 48.409 70.7109 49.8902C70.7109 51.3713 71.91 52.572 73.3891 52.572Z" fill="#E83826"/>
<path d="M68.0336 63.2996C69.5127 63.2996 70.7118 62.0989 70.7118 60.6177C70.7118 59.1366 69.5127 57.9359 68.0336 57.9359C66.5545 57.9359 65.3555 59.1366 65.3555 60.6177C65.3555 62.0989 66.5545 63.2996 68.0336 63.2996Z" fill="#E83826"/>
<path d="M51.9633 52.572C53.4424 52.572 54.6415 51.3713 54.6415 49.8902C54.6415 48.409 53.4424 47.2083 51.9633 47.2083C50.4842 47.2083 49.2852 48.409 49.2852 49.8902C49.2852 51.3713 50.4842 52.572 51.9633 52.572Z" fill="#E83826"/>
<path d="M57.3207 63.2996C58.7998 63.2996 59.9989 62.0989 59.9989 60.6177C59.9989 59.1366 58.7998 57.9359 57.3207 57.9359C55.8416 57.9359 54.6426 59.1366 54.6426 60.6177C54.6426 62.0989 55.8416 63.2996 57.3207 63.2996Z" fill="#E83826"/>
</g>
<defs>
<clipPath id="clip0_61_291">
<rect width="125" height="103" fill="white"/>
</clipPath>
</defs>
</svg>
