<svg xmlns="http://www.w3.org/2000/svg" width="230" height="230" fill="none"><g stroke-miterlimit="10" clip-path="url(#a)"><path fill="url(#b)" stroke="#F8AF18" stroke-width="6" d="M115 152.734c20.84 0 37.734-16.894 37.734-37.734 0-20.84-16.894-37.734-37.734-37.734-20.84 0-37.734 16.894-37.734 37.734 0 20.84 16.894 37.734 37.734 37.734Z"/><path stroke="#FBBF24" stroke-linecap="round" stroke-width="24" d="M115 56.467V34.14m0 161.718v-22.326m41.418-99.951 15.723-15.723M57.859 172.141l15.768-15.768m0-82.836L57.904 57.814M172.23 172.142l-15.767-15.768M56.467 115H34.14m161.718 0h-22.326"/></g><defs><linearGradient id="b" x1="96.133" x2="133.867" y1="82.297" y2="147.703" gradientUnits="userSpaceOnUse"><stop stop-color="#FBBF24"/><stop offset=".5" stop-color="#FBBF24"/><stop offset="1" stop-color="#F59E0B"/></linearGradient><clipPath id="a"><path fill="#fff" d="M28.75 28.75h172.5v172.5H28.75z"/></clipPath></defs></svg>