<svg xmlns="http://www.w3.org/2000/svg" width="222" height="222" fill="none"><mask id="a" width="73" height="136" x="111" y="34" maskUnits="userSpaceOnUse" style="mask-type:luminance"><path fill="#fff" d="M111 169.969c13.441 0 24.281-11.014 24.281-24.628a24.708 24.708 0 0 0-10.406-20.206V66.123a13.956 13.956 0 0 0-8.529-12.992 13.957 13.957 0 0 0-5.346-1.1V34.557h72.497V169.97H111Zm1.734-83.25h12.141-12.141Zm0-13.875h12.141-12.141Zm0 27.75h12.141-12.141Z"/></mask><g stroke-miterlimit="10" clip-path="url(#b)" mask="url(#a)"><path fill="url(#c)" stroke="#F8AF18" stroke-width="4" d="M136.148 106.664c9.579 0 17.344-7.765 17.344-17.344 0-9.578-7.765-17.343-17.344-17.343-9.578 0-17.343 7.765-17.343 17.343 0 9.579 7.765 17.344 17.343 17.344Z"/><path stroke="#FBBF24" stroke-linecap="round" stroke-width="12" d="M136.148 60.443V49.43m0 79.781v-11.013m20.423-49.257 7.804-7.76m-56.41 56.323 7.805-7.761m0-40.802-7.805-7.804m56.41 56.41-7.804-7.804M96.258 89.32h11.013m68.768 0h-11.013"/></g><g clip-path="url(#d)"><g clip-path="url(#e)"><path fill="#EF4444" d="M111 161.297c8.621 0 15.609-6.989 15.609-15.609 0-8.621-6.988-15.61-15.609-15.61-8.621 0-15.61 6.989-15.61 15.61 0 8.62 6.989 15.609 15.61 15.609Z"/><path stroke="#EF4444" stroke-linecap="round" stroke-miterlimit="10" stroke-width="24" d="M111 93.656v52.032"/></g><g clip-path="url(#f)"><path fill="url(#g)" d="M135.281 145.341c0 13.614-10.84 24.628-24.281 24.628-13.441 0-24.281-11.014-24.281-24.628a24.715 24.715 0 0 1 10.406-20.206V66.123a13.875 13.875 0 0 1 27.75 0v58.969a24.707 24.707 0 0 1 10.406 20.249Zm-22.547-58.622h12.141-12.141Zm0-13.875h12.141-12.141Zm0 27.75h12.141-12.141Z"/><path stroke="url(#h)" stroke-linecap="round" stroke-linejoin="round" stroke-width="6" d="M112.734 86.719h12.141m-12.141-13.875h12.141m-12.141 27.75h12.141m10.406 44.747c0 13.614-10.84 24.628-24.281 24.628-13.441 0-24.281-11.014-24.281-24.628a24.715 24.715 0 0 1 10.406-20.206V66.123a13.875 13.875 0 0 1 27.75 0v58.969a24.707 24.707 0 0 1 10.406 20.249Z"/></g></g><defs><clipPath id="b"><path fill="#fff" d="M93.656 46.828h84.984v84.984H93.656z"/></clipPath><clipPath id="d"><path fill="#fff" d="M85.418 50.73h51.164v120.54H85.418z"/></clipPath><clipPath id="e"><path fill="#fff" d="M95.39 88.453h31.22v72.844H95.39z"/></clipPath><clipPath id="f"><path fill="#fff" d="M85.418 50.73h51.164v120.54H85.418z"/></clipPath><linearGradient id="c" x1="127.477" x2="144.82" y1="74.318" y2="104.366" gradientUnits="userSpaceOnUse"><stop stop-color="#FBBF24"/><stop offset=".5" stop-color="#FBBF24"/><stop offset="1" stop-color="#F59E0B"/></linearGradient><linearGradient id="g" x1="82.296" x2="135.888" y1="66.47" y2="159.302" gradientUnits="userSpaceOnUse"><stop stop-color="#515A69" stop-opacity=".1"/><stop offset=".5" stop-color="#6B7280" stop-opacity=".1"/><stop offset="1" stop-color="#384354" stop-opacity=".1"/></linearGradient><linearGradient id="h" x1="81.646" x2="136.539" y1="65.343" y2="160.43" gradientUnits="userSpaceOnUse"><stop stop-color="#D4D7DD"/><stop offset=".5" stop-color="#D4D7DD"/><stop offset="1" stop-color="#BEC1C6"/></linearGradient></defs></svg>