<svg xmlns="http://www.w3.org/2000/svg" width="293" height="293" fill="none"><g clip-path="url(#a)"><g clip-path="url(#b)"><path fill="#EF4444" d="M146.13 212.81a20.55 20.55 0 1 0 0-41.1 20.55 20.55 0 0 0 0 41.1Z"/><path stroke="#EF4444" stroke-linecap="round" stroke-miterlimit="10" stroke-width="24" d="M146.13 123.77v68.5"/></g><g clip-path="url(#c)"><path fill="url(#d)" d="M178.1 191.8c0 17.93-14.27 32.43-31.97 32.43s-31.96-14.5-31.96-32.42a32.54 32.54 0 0 1 13.7-26.6V87.5a18.27 18.27 0 0 1 36.53 0v77.64a32.54 32.54 0 0 1 13.7 26.66Zm-29.68-77.17h15.98-15.98Zm0-18.27h15.98-15.98Zm0 36.54h15.98-15.98Z"/><path stroke="url(#e)" stroke-linecap="round" stroke-linejoin="round" stroke-width="6" d="M148.42 114.63h15.98m-15.98-18.27h15.98m-15.98 36.54h15.98m13.7 58.9c0 17.93-14.27 32.43-31.97 32.43s-31.96-14.5-31.96-32.42a32.54 32.54 0 0 1 13.7-26.6V87.5a18.27 18.27 0 0 1 36.53 0v77.64a32.54 32.54 0 0 1 13.7 26.66Z"/></g></g><defs><clipPath id="a"><path fill="#fff" d="M112.45 67.25h67.36v158.7h-67.36z"/></clipPath><clipPath id="b"><path fill="#fff" d="M125.58 116.92h41.1v95.9h-41.1z"/></clipPath><clipPath id="c"><path fill="#fff" d="M112.45 67.25h67.36v158.7h-67.36z"/></clipPath><linearGradient id="d" x1="108.34" x2="178.9" y1="87.97" y2="210.19" gradientUnits="userSpaceOnUse"><stop stop-color="#515A69" stop-opacity=".1"/><stop offset=".5" stop-color="#6B7280" stop-opacity=".1"/><stop offset="1" stop-color="#384354" stop-opacity=".1"/></linearGradient><linearGradient id="e" x1="107.49" x2="179.75" y1="86.49" y2="211.67" gradientUnits="userSpaceOnUse"><stop stop-color="#D4D7DD"/><stop offset=".5" stop-color="#D4D7DD"/><stop offset="1" stop-color="#BEC1C6"/></linearGradient></defs></svg>