<svg xmlns="http://www.w3.org/2000/svg" width="218" height="218" fill="none"><g clip-path="url(#a)"><g clip-path="url(#b)"><path fill="url(#c)" stroke="#72B9D5" stroke-linecap="round" stroke-linejoin="round" stroke-width="4" d="M97.334 97.248a36.104 36.104 0 0 1-36.362-35.893 35.466 35.466 0 0 1 1.192-8.984 36.064 36.064 0 0 0-32.36 35.638 36.104 36.104 0 0 0 36.362 35.893 36.272 36.272 0 0 0 35.17-26.867 37.441 37.441 0 0 1-4.002.213Z"/></g><g clip-path="url(#d)"><g clip-path="url(#e)"><path fill="url(#f)" stroke="#848B98" stroke-miterlimit="10" d="M113.828 112.917a13.796 13.796 0 0 0 13.796 13.795h55.266v-.042l.979.042a14.818 14.818 0 0 0 2.768-29.336 13.797 13.797 0 0 0-13.188-15.969 13.793 13.793 0 0 0-7.462 1.918 20.693 20.693 0 0 0-37.725 15.797h-.638a13.794 13.794 0 0 0-13.796 13.753v.042Z"/></g><g clip-path="url(#g)"><path fill="url(#h)" stroke="#5B6472" stroke-miterlimit="10" stroke-width="6" d="m153.213 107.297-1.064.042a35.72 35.72 0 0 0-20.87-41.51 35.721 35.721 0 0 0-44.232 14.218 23.843 23.843 0 0 0-36.021 20.437c.01 1.285.125 2.566.34 3.832a25.549 25.549 0 0 0-12.507 44.056 25.544 25.544 0 0 0 17.276 6.612l1.703-.085v.085h95.375a23.844 23.844 0 1 0 0-47.687Z"/></g></g></g><g clip-path="url(#i)"><path fill="url(#j)" stroke="#F6A823" stroke-miterlimit="10" stroke-width="4" d="m102.2 124.754-13.625 40.875H102.2l-6.812 34.062 34.062-47.687h-20.437l13.625-27.25H102.2Z"/></g><defs><clipPath id="a"><path fill="#fff" d="M28.953 51.52h169.802v104.742H28.953z"/></clipPath><clipPath id="b"><path fill="#fff" d="M28.953 51.52h73.234v73.234H28.953z"/></clipPath><clipPath id="d"><path fill="#fff" d="M29.31 61.738h169.462v94.523H29.31z"/></clipPath><clipPath id="e"><path fill="#fff" d="M113.615 73.234h85.284v53.691h-85.284z"/></clipPath><clipPath id="g"><path fill="#fff" d="M29.31 61.738h149.024v94.523H29.31z"/></clipPath><clipPath id="i"><path fill="#fff" d="M87.383 123.902h43.728v79.536H87.383z"/></clipPath><linearGradient id="c" x1="43.728" x2="79.706" y1="59.439" y2="121.773" gradientUnits="userSpaceOnUse"><stop stop-color="#86C3DB"/><stop offset=".5" stop-color="#86C3DB"/><stop offset="1" stop-color="#5EAFCF"/></linearGradient><linearGradient id="f" x1="136.054" x2="170.415" y1="77.322" y2="136.804" gradientUnits="userSpaceOnUse"><stop stop-color="#9CA3AF"/><stop offset=".5" stop-color="#9CA3AF"/><stop offset="1" stop-color="#6B7280"/></linearGradient><linearGradient id="h" x1="71.676" x2="128.348" y1="74.81" y2="173.037" gradientUnits="userSpaceOnUse"><stop stop-color="#6B7280"/><stop offset=".5" stop-color="#6B7280"/><stop offset="1" stop-color="#4B5563"/></linearGradient><linearGradient id="j" x1="91.087" x2="121.829" y1="131.183" y2="184.406" gradientUnits="userSpaceOnUse"><stop stop-color="#F7B23B"/><stop offset=".5" stop-color="#F7B23B"/><stop offset="1" stop-color="#F59E0B"/></linearGradient></defs></svg>