<svg xmlns="http://www.w3.org/2000/svg" width="237" height="236" fill="none"><g clip-path="url(#a)"><path fill="url(#b)" stroke="#2885C7" stroke-miterlimit="10" stroke-width="4" d="M97.32 62.94c-22.37 33.08-36.75 53.75-36.75 73.82 0 20.07 16.45 36.43 36.75 36.43s36.75-16.31 36.75-36.43-14.38-40.79-36.75-73.82Z"/></g><g clip-path="url(#c)"><path fill="url(#d)" stroke="#2885C7" stroke-miterlimit="10" stroke-width="4" d="M139.58 62.94c-22.37 33.08-36.75 53.75-36.75 73.82 0 20.07 16.44 36.43 36.75 36.43 20.3 0 36.74-16.31 36.74-36.43s-14.37-40.79-36.74-73.82Z"/></g><defs><linearGradient id="b" x1="66.45" x2="116.7" y1="80.72" y2="167.72" gradientUnits="userSpaceOnUse"><stop stop-color="#3392D6"/><stop offset=".5" stop-color="#3392D6"/><stop offset="1" stop-color="#2477B2"/></linearGradient><linearGradient id="d" x1="108.71" x2="158.96" y1="80.72" y2="167.72" gradientUnits="userSpaceOnUse"><stop stop-color="#3392D6"/><stop offset=".5" stop-color="#3392D6"/><stop offset="1" stop-color="#2477B2"/></linearGradient><clipPath id="a"><path fill="#fff" d="M59.65 61.29h75.33V174.1H59.65z"/></clipPath><clipPath id="c"><path fill="#fff" d="M101.91 61.29h75.33V174.1h-75.33z"/></clipPath></defs></svg>